  0
SECTION
  2
HEADER
  9
$ACADVER
  1
AC1014
  9
$HANDSEED
  5
FFFF
  9
$MEASUREMENT
 70
     1
  0
ENDSEC
  0
SECTION
  2
TABLES
  0
TABLE
  2
VPORT
  5
8
330
0
100
AcDbSymbolTable
 70
     4
  0
VPORT
  5
2E
330
8
100
AcDbSymbolTableRecord
100
AcDbViewportTableRecord
  2
*ACTIVE
 70
     0
 10
0.0
 20
0.0
 11
1.0
 21
1.0
 12
210.0
 22
148.5
 13
0.0
 23
0.0
 14
10.0
 24
10.0
 15
10.0
 25
10.0
 16
0.0
 26
0.0
 36
1.0
 17
0.0
 27
0.0
 37
0.0
 40
341.0
 41
1.24
 42
50.0
 43
0.0
 44
0.0
 50
0.0
 51
0.0
 71
     0
 72
   100
 73
     1
 74
     3
 75
     0
 76
     0
 77
     0
 78
     0
  0
ENDTAB
  0
TABLE
  2
LTYPE
  5
5
330
0
100
AcDbSymbolTable
 70
     1
  0
LTYPE
  5
14
330
5
100
AcDbSymbolTableRecord
100
AcDbLinetypeTableRecord
  2
BYBLOCK
 70
     0
  3

 72
    65
 73
     0
 40
0.0
  0
LTYPE
  5
15
330
5
100
AcDbSymbolTableRecord
100
AcDbLinetypeTableRecord
  2
BYLAYER
 70
     0
  3

 72
    65
 73
     0
 40
0.0
  0
LTYPE
  5
16
330
5
100
AcDbSymbolTableRecord
100
AcDbLinetypeTableRecord
  2
CONTINUOUS
 70
     0
  3
Solid line
 72
    65
 73
     0
 40
0.0
  0
ENDTAB
  0
TABLE
  2
LAYER
  5
2
100
AcDbSymbolTable
 70
6
  0
LAYER
  5
50
100
AcDbSymbolTableRecord
100
AcDbLayerTableRecord
  2
0
 70
0
  6
CONTINUOUS
  0
LAYER
  5
51
100
AcDbSymbolTableRecord
100
AcDbLayerTableRecord
  2
Layer_1
 70
0
  6
CONTINUOUS
  0
LAYER
  5
52
100
AcDbSymbolTableRecord
100
AcDbLayerTableRecord
  2
Bottom-plate
 70
0
  6
CONTINUOUS
  0
LAYER
  5
53
100
AcDbSymbolTableRecord
100
AcDbLayerTableRecord
  2
Top-plate
 70
0
  6
CONTINUOUS
  0
LAYER
  5
54
100
AcDbSymbolTableRecord
100
AcDbLayerTableRecord
  2
Makeblock
 70
0
  6
CONTINUOUS
  0
LAYER
  5
55
100
AcDbSymbolTableRecord
100
AcDbLayerTableRecord
  2
random
 70
0
  6
CONTINUOUS
  0
ENDTAB
  0
TABLE
  2
STYLE
  5
3
330
0
100
AcDbSymbolTable
 70
     1
  0
STYLE
  5
11
330
3
100
AcDbSymbolTableRecord
100
AcDbTextStyleTableRecord
  2
STANDARD
 70
     0
 40
0.0
 41
1.0
 50
0.0
 71
     0
 42
2.5
  3
txt
  4

  0
ENDTAB
  0
TABLE
  2
VIEW
  5
6
330
0
100
AcDbSymbolTable
 70
     0
  0
ENDTAB
  0
TABLE
  2
UCS
  5
7
330
0
100
AcDbSymbolTable
 70
     0
  0
ENDTAB
  0
TABLE
  2
APPID
  5
9
330
0
100
AcDbSymbolTable
 70
     2
  0
APPID
  5
12
330
9
100
AcDbSymbolTableRecord
100
AcDbRegAppTableRecord
  2
ACAD
 70
     0
  0
ENDTAB
  0
TABLE
  2
DIMSTYLE
  5
A
330
0
100
AcDbSymbolTable
 70
     1
  0
DIMSTYLE
105
27
330
A
100
AcDbSymbolTableRecord
100
AcDbDimStyleTableRecord
  2
ISO-25
 70
     0
  3

  4

  5

  6

  7

 40
1.0
 41
2.5
 42
0.625
 43
3.75
 44
1.25
 45
0.0
 46
0.0
 47
0.0
 48
0.0
140
2.5
141
2.5
142
0.0
143
0.03937007874016
144
1.0
145
0.0
146
1.0
147
0.625
 71
     0
 72
     0
 73
     0
 74
     0
 75
     0
 76
     0
 77
     1
 78
     8
170
     0
171
     3
172
     1
173
     0
174
     0
175
     0
176
     0
177
     0
178
     0
270
     2
271
     2
272
     2
273
     2
274
     3
340
11
275
     0
280
     0
281
     0
282
     0
283
     0
284
     8
285
     0
286
     0
287
     3
288
     0
  0
ENDTAB
  0
TABLE
  2
BLOCK_RECORD
  5
1
330
0
100
AcDbSymbolTable
 70
     1
  0
BLOCK_RECORD
  5
1F
330
1
100
AcDbSymbolTableRecord
100
AcDbBlockTableRecord
  2
*MODEL_SPACE
  0
BLOCK_RECORD
  5
1B
330
1
100
AcDbSymbolTableRecord
100
AcDbBlockTableRecord
  2
*PAPER_SPACE
  0
ENDTAB
  0
ENDSEC
  0
SECTION
  2
BLOCKS
  0
BLOCK
  5
20
330
1F
100
AcDbEntity
  8
0
100
AcDbBlockBegin
  2
*MODEL_SPACE
 70
     0
 10
0.0
 20
0.0
 30
0.0
  3
*MODEL_SPACE
  1

  0
ENDBLK
  5
21
330
1F
100
AcDbEntity
  8
0
100
AcDbBlockEnd
  0
BLOCK
  5
1C
330
1B
100
AcDbEntity
 67
     1
  8
0
100
AcDbBlockBegin
  2
*PAPER_SPACE
  1

  0
ENDBLK
  5
1D
330
1B
100
AcDbEntity
 67
     1
  8
0
100
AcDbBlockEnd
  0
ENDSEC
  0
SECTION
  2
ENTITIES
  0
LINE
  5
100
100
AcDbEntity
  8
Bottom-plate
 62
7
100
AcDbLine
 10
-75.154276
 20
530.157916
 30
0.0
 11
671.845697
 21
530.157916
 31
0.0
  0
LINE
  5
101
100
AcDbEntity
  8
Bottom-plate
 62
7
100
AcDbLine
 10
671.845697
 20
530.157916
 30
0.0
 11
671.845697
 21
-21.842081
 31
0.0
  0
LINE
  5
102
100
AcDbEntity
  8
Bottom-plate
 62
7
100
AcDbLine
 10
671.845697
 20
-21.842081
 30
0.0
 11
-75.154276
 21
-21.842081
 31
0.0
  0
LINE
  5
103
100
AcDbEntity
  8
Bottom-plate
 62
7
100
AcDbLine
 10
-75.154276
 20
-21.842081
 30
0.0
 11
-75.154276
 21
530.157916
 31
0.0
  0
LINE
  5
104
100
AcDbEntity
  8
Bottom-plate
 62
7
100
AcDbLine
 10
49.845716
 20
536.287133
 30
0.0
 11
549.845732
 21
536.287133
 31
0.0
  0
LINE
  5
105
100
AcDbEntity
  8
Bottom-plate
 62
7
100
AcDbLine
 10
549.845732
 20
536.287133
 30
0.0
 11
549.845732
 21
476.997626
 31
0.0
  0
LINE
  5
106
100
AcDbEntity
  8
Bottom-plate
 62
7
100
AcDbLine
 10
549.845732
 20
476.997626
 30
0.0
 11
49.845716
 21
476.997626
 31
0.0
  0
LINE
  5
107
100
AcDbEntity
  8
Bottom-plate
 62
7
100
AcDbLine
 10
49.845716
 20
476.997626
 30
0.0
 11
49.845716
 21
536.287133
 31
0.0
  0
LINE
  5
108
100
AcDbEntity
  8
Bottom-plate
 62
7
100
AcDbLine
 10
49.845716
 20
34.997559
 30
0.0
 11
549.845732
 21
34.997559
 31
0.0
  0
LINE
  5
109
100
AcDbEntity
  8
Bottom-plate
 62
7
100
AcDbLine
 10
549.845732
 20
34.997559
 30
0.0
 11
549.845732
 21
-22.969375
 31
0.0
  0
LINE
  5
10a
100
AcDbEntity
  8
Bottom-plate
 62
7
100
AcDbLine
 10
549.845732
 20
-22.969375
 30
0.0
 11
49.845716
 21
-22.969375
 31
0.0
  0
LINE
  5
10b
100
AcDbEntity
  8
Bottom-plate
 62
7
100
AcDbLine
 10
49.845716
 20
-22.969375
 30
0.0
 11
49.845716
 21
34.997559
 31
0.0
  0
LINE
  5
10c
100
AcDbEntity
  8
Bottom-plate
 62
7
100
AcDbLine
 10
0.667952
 20
513.845217
 30
0.0
 11
595.766387
 21
513.845217
 31
0.0
  0
LINE
  5
10d
100
AcDbEntity
  8
Bottom-plate
 62
7
100
AcDbLine
 10
595.766387
 20
513.845217
 30
0.0
 11
595.766387
 21
2.607141
 31
0.0
  0
LINE
  5
10e
100
AcDbEntity
  8
Bottom-plate
 62
7
100
AcDbLine
 10
595.766387
 20
2.607141
 30
0.0
 11
0.667952
 21
2.607141
 31
0.0
  0
LINE
  5
10f
100
AcDbEntity
  8
Bottom-plate
 62
7
100
AcDbLine
 10
0.667952
 20
2.607141
 30
0.0
 11
0.667952
 21
513.845217
 31
0.0
  0
LINE
  5
110
100
AcDbEntity
  8
Bottom-plate
 62
7
100
AcDbLine
 10
41.298769
 20
425.997963
 30
0.0
 11
41.298769
 21
85.997316
 31
0.0
  0
LINE
  5
111
100
AcDbEntity
  8
Bottom-plate
 62
7
100
AcDbLine
 10
41.298769
 20
85.997316
 30
0.0
 11
240.477610
 21
255.997654
 31
0.0
  0
LINE
  5
112
100
AcDbEntity
  8
Bottom-plate
 62
7
100
AcDbLine
 10
240.477610
 20
255.997654
 30
0.0
 11
41.298769
 21
425.997963
 31
0.0
  0
LINE
  5
113
100
AcDbEntity
  8
Bottom-plate
 62
7
100
AcDbLine
 10
555.437604
 20
85.997316
 30
0.0
 11
555.437604
 21
425.997963
 31
0.0
  0
LINE
  5
114
100
AcDbEntity
  8
Bottom-plate
 62
7
100
AcDbLine
 10
555.437604
 20
425.997963
 30
0.0
 11
356.258763
 21
255.997625
 31
0.0
  0
LINE
  5
115
100
AcDbEntity
  8
Bottom-plate
 62
7
100
AcDbLine
 10
356.258763
 20
255.997625
 30
0.0
 11
555.437604
 21
85.997316
 31
0.0
  0
LINE
  5
116
100
AcDbEntity
  8
Bottom-plate
 62
7
100
AcDbLine
 10
153.523273
 20
75.210331
 30
0.0
 11
443.518939
 21
75.210331
 31
0.0
  0
LINE
  5
117
100
AcDbEntity
  8
Bottom-plate
 62
7
100
AcDbLine
 10
443.518939
 20
75.210331
 30
0.0
 11
297.607990
 21
203.826082
 31
0.0
  0
LINE
  5
118
100
AcDbEntity
  8
Bottom-plate
 62
7
100
AcDbLine
 10
297.607990
 20
203.826082
 30
0.0
 11
153.523273
 21
75.210331
 31
0.0
  0
LINE
  5
119
100
AcDbEntity
  8
Bottom-plate
 62
7
100
AcDbLine
 10
443.518939
 20
437.506082
 30
0.0
 11
153.523273
 21
437.506082
 31
0.0
  0
LINE
  5
11a
100
AcDbEntity
  8
Bottom-plate
 62
7
100
AcDbLine
 10
153.523273
 20
437.506082
 30
0.0
 11
299.434222
 21
308.890331
 31
0.0
  0
LINE
  5
11b
100
AcDbEntity
  8
Bottom-plate
 62
7
100
AcDbLine
 10
299.434222
 20
308.890331
 30
0.0
 11
443.518939
 21
437.506082
 31
0.0
  0
SPLINE
  5
11c
100
AcDbEntity
  8
Bottom-plate
 62
7
100
AcDbSpline
 70
8
 71
3
 72
8
 73
4
 74
0
 40
0
 40
0
 40
0
 40
0
 40
1
 40
1
 40
1
 40
1
 10
5.962245
 20
3.799804
 30
0.0
 10
5.962461
 20
3.156582
 30
0.0
 10
5.619430
 20
2.562128
 30
0.0
 10
5.062419
 20
2.240454
 30
0.0
  0
SPLINE
  5
11d
100
AcDbEntity
  8
Bottom-plate
 62
7
100
AcDbSpline
 70
8
 71
3
 72
8
 73
4
 74
0
 40
0
 40
0
 40
0
 40
0
 40
1
 40
1
 40
1
 40
1
 10
5.062419
 20
2.240454
 30
0.0
 10
4.505408
 20
1.918781
 30
0.0
 10
3.819081
 20
1.918781
 30
0.0
 10
3.262070
 20
2.240454
 30
0.0
  0
SPLINE
  5
11e
100
AcDbEntity
  8
Bottom-plate
 62
7
100
AcDbSpline
 70
8
 71
3
 72
8
 73
4
 74
0
 40
0
 40
0
 40
0
 40
0
 40
1
 40
1
 40
1
 40
1
 10
3.262070
 20
2.240454
 30
0.0
 10
2.705059
 20
2.562128
 30
0.0
 10
2.362028
 20
3.156582
 30
0.0
 10
2.362245
 20
3.799804
 30
0.0
  0
SPLINE
  5
11f
100
AcDbEntity
  8
Bottom-plate
 62
7
100
AcDbSpline
 70
8
 71
3
 72
8
 73
4
 74
0
 40
0
 40
0
 40
0
 40
0
 40
1
 40
1
 40
1
 40
1
 10
2.362245
 20
3.799804
 30
0.0
 10
2.362028
 20
4.443026
 30
0.0
 10
2.705059
 20
5.037480
 30
0.0
 10
3.262070
 20
5.359154
 30
0.0
  0
SPLINE
  5
120
100
AcDbEntity
  8
Bottom-plate
 62
7
100
AcDbSpline
 70
8
 71
3
 72
8
 73
4
 74
0
 40
0
 40
0
 40
0
 40
0
 40
1
 40
1
 40
1
 40
1
 10
3.262070
 20
5.359154
 30
0.0
 10
3.819081
 20
5.680827
 30
0.0
 10
4.505408
 20
5.680827
 30
0.0
 10
5.062419
 20
5.359154
 30
0.0
  0
SPLINE
  5
121
100
AcDbEntity
  8
Bottom-plate
 62
7
100
AcDbSpline
 70
8
 71
3
 72
8
 73
4
 74
0
 40
0
 40
0
 40
0
 40
0
 40
1
 40
1
 40
1
 40
1
 10
5.062419
 20
5.359154
 30
0.0
 10
5.619430
 20
5.037480
 30
0.0
 10
5.962461
 20
4.443026
 30
0.0
 10
5.962245
 20
3.799804
 30
0.0
  0
LINE
  5
122
100
AcDbEntity
  8
Bottom-plate
 62
7
100
AcDbLine
 10
5.962245
 20
3.799804
 30
0.0
 11
5.962245
 21
3.799804
 31
0.0
  0
SPLINE
  5
123
100
AcDbEntity
  8
Bottom-plate
 62
7
100
AcDbSpline
 70
8
 71
3
 72
8
 73
4
 74
0
 40
0
 40
0
 40
0
 40
0
 40
1
 40
1
 40
1
 40
1
 10
21.962244
 20
3.799804
 30
0.0
 10
21.962460
 20
3.156582
 30
0.0
 10
21.619429
 20
2.562128
 30
0.0
 10
21.062418
 20
2.240454
 30
0.0
  0
SPLINE
  5
124
100
AcDbEntity
  8
Bottom-plate
 62
7
100
AcDbSpline
 70
8
 71
3
 72
8
 73
4
 74
0
 40
0
 40
0
 40
0
 40
0
 40
1
 40
1
 40
1
 40
1
 10
21.062418
 20
2.240454
 30
0.0
 10
20.505408
 20
1.918781
 30
0.0
 10
19.819080
 20
1.918781
 30
0.0
 10
19.262069
 20
2.240454
 30
0.0
  0
SPLINE
  5
125
100
AcDbEntity
  8
Bottom-plate
 62
7
100
AcDbSpline
 70
8
 71
3
 72
8
 73
4
 74
0
 40
0
 40
0
 40
0
 40
0
 40
1
 40
1
 40
1
 40
1
 10
19.262069
 20
2.240454
 30
0.0
 10
18.705058
 20
2.562128
 30
0.0
 10
18.362028
 20
3.156582
 30
0.0
 10
18.362244
 20
3.799804
 30
0.0
  0
SPLINE
  5
126
100
AcDbEntity
  8
Bottom-plate
 62
7
100
AcDbSpline
 70
8
 71
3
 72
8
 73
4
 74
0
 40
0
 40
0
 40
0
 40
0
 40
1
 40
1
 40
1
 40
1
 10
18.362244
 20
3.799804
 30
0.0
 10
18.362028
 20
4.443026
 30
0.0
 10
18.705058
 20
5.037480
 30
0.0
 10
19.262069
 20
5.359154
 30
0.0
  0
SPLINE
  5
127
100
AcDbEntity
  8
Bottom-plate
 62
7
100
AcDbSpline
 70
8
 71
3
 72
8
 73
4
 74
0
 40
0
 40
0
 40
0
 40
0
 40
1
 40
1
 40
1
 40
1
 10
19.262069
 20
5.359154
 30
0.0
 10
19.819080
 20
5.680827
 30
0.0
 10
20.505408
 20
5.680827
 30
0.0
 10
21.062418
 20
5.359154
 30
0.0
  0
SPLINE
  5
128
100
AcDbEntity
  8
Bottom-plate
 62
7
100
AcDbSpline
 70
8
 71
3
 72
8
 73
4
 74
0
 40
0
 40
0
 40
0
 40
0
 40
1
 40
1
 40
1
 40
1
 10
21.062418
 20
5.359154
 30
0.0
 10
21.619429
 20
5.037480
 30
0.0
 10
21.962460
 20
4.443026
 30
0.0
 10
21.962244
 20
3.799804
 30
0.0
  0
LINE
  5
129
100
AcDbEntity
  8
Bottom-plate
 62
7
100
AcDbLine
 10
21.962244
 20
3.799804
 30
0.0
 11
21.962244
 21
3.799804
 31
0.0
  0
SPLINE
  5
12a
100
AcDbEntity
  8
Bottom-plate
 62
7
100
AcDbSpline
 70
8
 71
3
 72
8
 73
4
 74
0
 40
0
 40
0
 40
0
 40
0
 40
1
 40
1
 40
1
 40
1
 10
578.962233
 20
3.799804
 30
0.0
 10
578.962449
 20
3.156582
 30
0.0
 10
578.619418
 20
2.562128
 30
0.0
 10
578.062408
 20
2.240454
 30
0.0
  0
SPLINE
  5
12b
100
AcDbEntity
  8
Bottom-plate
 62
7
100
AcDbSpline
 70
8
 71
3
 72
8
 73
4
 74
0
 40
0
 40
0
 40
0
 40
0
 40
1
 40
1
 40
1
 40
1
 10
578.062408
 20
2.240454
 30
0.0
 10
577.505397
 20
1.918781
 30
0.0
 10
576.819069
 20
1.918781
 30
0.0
 10
576.262058
 20
2.240454
 30
0.0
  0
SPLINE
  5
12c
100
AcDbEntity
  8
Bottom-plate
 62
7
100
AcDbSpline
 70
8
 71
3
 72
8
 73
4
 74
0
 40
0
 40
0
 40
0
 40
0
 40
1
 40
1
 40
1
 40
1
 10
576.262058
 20
2.240454
 30
0.0
 10
575.705048
 20
2.562128
 30
0.0
 10
575.362017
 20
3.156582
 30
0.0
 10
575.362233
 20
3.799804
 30
0.0
  0
SPLINE
  5
12d
100
AcDbEntity
  8
Bottom-plate
 62
7
100
AcDbSpline
 70
8
 71
3
 72
8
 73
4
 74
0
 40
0
 40
0
 40
0
 40
0
 40
1
 40
1
 40
1
 40
1
 10
575.362233
 20
3.799804
 30
0.0
 10
575.362017
 20
4.443026
 30
0.0
 10
575.705048
 20
5.037480
 30
0.0
 10
576.262058
 20
5.359154
 30
0.0
  0
SPLINE
  5
12e
100
AcDbEntity
  8
Bottom-plate
 62
7
100
AcDbSpline
 70
8
 71
3
 72
8
 73
4
 74
0
 40
0
 40
0
 40
0
 40
0
 40
1
 40
1
 40
1
 40
1
 10
576.262058
 20
5.359154
 30
0.0
 10
576.819069
 20
5.680827
 30
0.0
 10
577.505397
 20
5.680827
 30
0.0
 10
578.062408
 20
5.359154
 30
0.0
  0
SPLINE
  5
12f
100
AcDbEntity
  8
Bottom-plate
 62
7
100
AcDbSpline
 70
8
 71
3
 72
8
 73
4
 74
0
 40
0
 40
0
 40
0
 40
0
 40
1
 40
1
 40
1
 40
1
 10
578.062408
 20
5.359154
 30
0.0
 10
578.619418
 20
5.037480
 30
0.0
 10
578.962449
 20
4.443026
 30
0.0
 10
578.962233
 20
3.799804
 30
0.0
  0
LINE
  5
130
100
AcDbEntity
  8
Bottom-plate
 62
7
100
AcDbLine
 10
578.962233
 20
3.799804
 30
0.0
 11
578.962233
 21
3.799804
 31
0.0
  0
SPLINE
  5
131
100
AcDbEntity
  8
Bottom-plate
 62
7
100
AcDbSpline
 70
8
 71
3
 72
8
 73
4
 74
0
 40
0
 40
0
 40
0
 40
0
 40
1
 40
1
 40
1
 40
1
 10
594.962229
 20
3.799804
 30
0.0
 10
594.962445
 20
3.156582
 30
0.0
 10
594.619415
 20
2.562128
 30
0.0
 10
594.062404
 20
2.240454
 30
0.0
  0
SPLINE
  5
132
100
AcDbEntity
  8
Bottom-plate
 62
7
100
AcDbSpline
 70
8
 71
3
 72
8
 73
4
 74
0
 40
0
 40
0
 40
0
 40
0
 40
1
 40
1
 40
1
 40
1
 10
594.062404
 20
2.240454
 30
0.0
 10
593.505393
 20
1.918781
 30
0.0
 10
592.819065
 20
1.918781
 30
0.0
 10
592.262055
 20
2.240454
 30
0.0
  0
SPLINE
  5
133
100
AcDbEntity
  8
Bottom-plate
 62
7
100
AcDbSpline
 70
8
 71
3
 72
8
 73
4
 74
0
 40
0
 40
0
 40
0
 40
0
 40
1
 40
1
 40
1
 40
1
 10
592.262055
 20
2.240454
 30
0.0
 10
591.705044
 20
2.562128
 30
0.0
 10
591.362013
 20
3.156582
 30
0.0
 10
591.362229
 20
3.799804
 30
0.0
  0
SPLINE
  5
134
100
AcDbEntity
  8
Bottom-plate
 62
7
100
AcDbSpline
 70
8
 71
3
 72
8
 73
4
 74
0
 40
0
 40
0
 40
0
 40
0
 40
1
 40
1
 40
1
 40
1
 10
591.362229
 20
3.799804
 30
0.0
 10
591.362013
 20
4.443026
 30
0.0
 10
591.705044
 20
5.037480
 30
0.0
 10
592.262055
 20
5.359154
 30
0.0
  0
SPLINE
  5
135
100
AcDbEntity
  8
Bottom-plate
 62
7
100
AcDbSpline
 70
8
 71
3
 72
8
 73
4
 74
0
 40
0
 40
0
 40
0
 40
0
 40
1
 40
1
 40
1
 40
1
 10
592.262055
 20
5.359154
 30
0.0
 10
592.819065
 20
5.680827
 30
0.0
 10
593.505393
 20
5.680827
 30
0.0
 10
594.062404
 20
5.359154
 30
0.0
  0
SPLINE
  5
136
100
AcDbEntity
  8
Bottom-plate
 62
7
100
AcDbSpline
 70
8
 71
3
 72
8
 73
4
 74
0
 40
0
 40
0
 40
0
 40
0
 40
1
 40
1
 40
1
 40
1
 10
594.062404
 20
5.359154
 30
0.0
 10
594.619415
 20
5.037480
 30
0.0
 10
594.962445
 20
4.443026
 30
0.0
 10
594.962229
 20
3.799804
 30
0.0
  0
LINE
  5
137
100
AcDbEntity
  8
Bottom-plate
 62
7
100
AcDbLine
 10
594.962229
 20
3.799804
 30
0.0
 11
594.962229
 21
3.799804
 31
0.0
  0
SPLINE
  5
138
100
AcDbEntity
  8
Bottom-plate
 62
7
100
AcDbSpline
 70
8
 71
3
 72
8
 73
4
 74
0
 40
0
 40
0
 40
0
 40
0
 40
1
 40
1
 40
1
 40
1
 10
5.962245
 20
507.799806
 30
0.0
 10
5.962461
 20
507.156584
 30
0.0
 10
5.619430
 20
506.562130
 30
0.0
 10
5.062419
 20
506.240456
 30
0.0
  0
SPLINE
  5
139
100
AcDbEntity
  8
Bottom-plate
 62
7
100
AcDbSpline
 70
8
 71
3
 72
8
 73
4
 74
0
 40
0
 40
0
 40
0
 40
0
 40
1
 40
1
 40
1
 40
1
 10
5.062419
 20
506.240456
 30
0.0
 10
4.505408
 20
505.918783
 30
0.0
 10
3.819081
 20
505.918783
 30
0.0
 10
3.262070
 20
506.240456
 30
0.0
  0
SPLINE
  5
13a
100
AcDbEntity
  8
Bottom-plate
 62
7
100
AcDbSpline
 70
8
 71
3
 72
8
 73
4
 74
0
 40
0
 40
0
 40
0
 40
0
 40
1
 40
1
 40
1
 40
1
 10
3.262070
 20
506.240456
 30
0.0
 10
2.705059
 20
506.562130
 30
0.0
 10
2.362028
 20
507.156584
 30
0.0
 10
2.362245
 20
507.799806
 30
0.0
  0
SPLINE
  5
13b
100
AcDbEntity
  8
Bottom-plate
 62
7
100
AcDbSpline
 70
8
 71
3
 72
8
 73
4
 74
0
 40
0
 40
0
 40
0
 40
0
 40
1
 40
1
 40
1
 40
1
 10
2.362245
 20
507.799806
 30
0.0
 10
2.362028
 20
508.443028
 30
0.0
 10
2.705059
 20
509.037483
 30
0.0
 10
3.262070
 20
509.359156
 30
0.0
  0
SPLINE
  5
13c
100
AcDbEntity
  8
Bottom-plate
 62
7
100
AcDbSpline
 70
8
 71
3
 72
8
 73
4
 74
0
 40
0
 40
0
 40
0
 40
0
 40
1
 40
1
 40
1
 40
1
 10
3.262070
 20
509.359156
 30
0.0
 10
3.819081
 20
509.680829
 30
0.0
 10
4.505408
 20
509.680829
 30
0.0
 10
5.062419
 20
509.359156
 30
0.0
  0
SPLINE
  5
13d
100
AcDbEntity
  8
Bottom-plate
 62
7
100
AcDbSpline
 70
8
 71
3
 72
8
 73
4
 74
0
 40
0
 40
0
 40
0
 40
0
 40
1
 40
1
 40
1
 40
1
 10
5.062419
 20
509.359156
 30
0.0
 10
5.619430
 20
509.037483
 30
0.0
 10
5.962461
 20
508.443028
 30
0.0
 10
5.962245
 20
507.799806
 30
0.0
  0
LINE
  5
13e
100
AcDbEntity
  8
Bottom-plate
 62
7
100
AcDbLine
 10
5.962245
 20
507.799806
 30
0.0
 11
5.962245
 21
507.799806
 31
0.0
  0
SPLINE
  5
13f
100
AcDbEntity
  8
Bottom-plate
 62
7
100
AcDbSpline
 70
8
 71
3
 72
8
 73
4
 74
0
 40
0
 40
0
 40
0
 40
0
 40
1
 40
1
 40
1
 40
1
 10
21.962244
 20
507.799806
 30
0.0
 10
21.962460
 20
507.156584
 30
0.0
 10
21.619429
 20
506.562130
 30
0.0
 10
21.062418
 20
506.240456
 30
0.0
  0
SPLINE
  5
140
100
AcDbEntity
  8
Bottom-plate
 62
7
100
AcDbSpline
 70
8
 71
3
 72
8
 73
4
 74
0
 40
0
 40
0
 40
0
 40
0
 40
1
 40
1
 40
1
 40
1
 10
21.062418
 20
506.240456
 30
0.0
 10
20.505408
 20
505.918783
 30
0.0
 10
19.819080
 20
505.918783
 30
0.0
 10
19.262069
 20
506.240456
 30
0.0
  0
SPLINE
  5
141
100
AcDbEntity
  8
Bottom-plate
 62
7
100
AcDbSpline
 70
8
 71
3
 72
8
 73
4
 74
0
 40
0
 40
0
 40
0
 40
0
 40
1
 40
1
 40
1
 40
1
 10
19.262069
 20
506.240456
 30
0.0
 10
18.705058
 20
506.562130
 30
0.0
 10
18.362028
 20
507.156584
 30
0.0
 10
18.362244
 20
507.799806
 30
0.0
  0
SPLINE
  5
142
100
AcDbEntity
  8
Bottom-plate
 62
7
100
AcDbSpline
 70
8
 71
3
 72
8
 73
4
 74
0
 40
0
 40
0
 40
0
 40
0
 40
1
 40
1
 40
1
 40
1
 10
18.362244
 20
507.799806
 30
0.0
 10
18.362028
 20
508.443028
 30
0.0
 10
18.705058
 20
509.037483
 30
0.0
 10
19.262069
 20
509.359156
 30
0.0
  0
SPLINE
  5
143
100
AcDbEntity
  8
Bottom-plate
 62
7
100
AcDbSpline
 70
8
 71
3
 72
8
 73
4
 74
0
 40
0
 40
0
 40
0
 40
0
 40
1
 40
1
 40
1
 40
1
 10
19.262069
 20
509.359156
 30
0.0
 10
19.819080
 20
509.680829
 30
0.0
 10
20.505408
 20
509.680829
 30
0.0
 10
21.062418
 20
509.359156
 30
0.0
  0
SPLINE
  5
144
100
AcDbEntity
  8
Bottom-plate
 62
7
100
AcDbSpline
 70
8
 71
3
 72
8
 73
4
 74
0
 40
0
 40
0
 40
0
 40
0
 40
1
 40
1
 40
1
 40
1
 10
21.062418
 20
509.359156
 30
0.0
 10
21.619429
 20
509.037483
 30
0.0
 10
21.962460
 20
508.443028
 30
0.0
 10
21.962244
 20
507.799806
 30
0.0
  0
LINE
  5
145
100
AcDbEntity
  8
Bottom-plate
 62
7
100
AcDbLine
 10
21.962244
 20
507.799806
 30
0.0
 11
21.962244
 21
507.799806
 31
0.0
  0
SPLINE
  5
146
100
AcDbEntity
  8
Bottom-plate
 62
7
100
AcDbSpline
 70
8
 71
3
 72
8
 73
4
 74
0
 40
0
 40
0
 40
0
 40
0
 40
1
 40
1
 40
1
 40
1
 10
578.962233
 20
507.799806
 30
0.0
 10
578.962449
 20
507.156584
 30
0.0
 10
578.619418
 20
506.562130
 30
0.0
 10
578.062408
 20
506.240456
 30
0.0
  0
SPLINE
  5
147
100
AcDbEntity
  8
Bottom-plate
 62
7
100
AcDbSpline
 70
8
 71
3
 72
8
 73
4
 74
0
 40
0
 40
0
 40
0
 40
0
 40
1
 40
1
 40
1
 40
1
 10
578.062408
 20
506.240456
 30
0.0
 10
577.505397
 20
505.918783
 30
0.0
 10
576.819069
 20
505.918783
 30
0.0
 10
576.262058
 20
506.240456
 30
0.0
  0
SPLINE
  5
148
100
AcDbEntity
  8
Bottom-plate
 62
7
100
AcDbSpline
 70
8
 71
3
 72
8
 73
4
 74
0
 40
0
 40
0
 40
0
 40
0
 40
1
 40
1
 40
1
 40
1
 10
576.262058
 20
506.240456
 30
0.0
 10
575.705048
 20
506.562130
 30
0.0
 10
575.362017
 20
507.156584
 30
0.0
 10
575.362233
 20
507.799806
 30
0.0
  0
SPLINE
  5
149
100
AcDbEntity
  8
Bottom-plate
 62
7
100
AcDbSpline
 70
8
 71
3
 72
8
 73
4
 74
0
 40
0
 40
0
 40
0
 40
0
 40
1
 40
1
 40
1
 40
1
 10
575.362233
 20
507.799806
 30
0.0
 10
575.362017
 20
508.443028
 30
0.0
 10
575.705048
 20
509.037483
 30
0.0
 10
576.262058
 20
509.359156
 30
0.0
  0
SPLINE
  5
14a
100
AcDbEntity
  8
Bottom-plate
 62
7
100
AcDbSpline
 70
8
 71
3
 72
8
 73
4
 74
0
 40
0
 40
0
 40
0
 40
0
 40
1
 40
1
 40
1
 40
1
 10
576.262058
 20
509.359156
 30
0.0
 10
576.819069
 20
509.680829
 30
0.0
 10
577.505397
 20
509.680829
 30
0.0
 10
578.062408
 20
509.359156
 30
0.0
  0
SPLINE
  5
14b
100
AcDbEntity
  8
Bottom-plate
 62
7
100
AcDbSpline
 70
8
 71
3
 72
8
 73
4
 74
0
 40
0
 40
0
 40
0
 40
0
 40
1
 40
1
 40
1
 40
1
 10
578.062408
 20
509.359156
 30
0.0
 10
578.619418
 20
509.037483
 30
0.0
 10
578.962449
 20
508.443028
 30
0.0
 10
578.962233
 20
507.799806
 30
0.0
  0
LINE
  5
14c
100
AcDbEntity
  8
Bottom-plate
 62
7
100
AcDbLine
 10
578.962233
 20
507.799806
 30
0.0
 11
578.962233
 21
507.799806
 31
0.0
  0
SPLINE
  5
14d
100
AcDbEntity
  8
Bottom-plate
 62
7
100
AcDbSpline
 70
8
 71
3
 72
8
 73
4
 74
0
 40
0
 40
0
 40
0
 40
0
 40
1
 40
1
 40
1
 40
1
 10
594.962229
 20
507.799806
 30
0.0
 10
594.962445
 20
507.156584
 30
0.0
 10
594.619415
 20
506.562130
 30
0.0
 10
594.062404
 20
506.240456
 30
0.0
  0
SPLINE
  5
14e
100
AcDbEntity
  8
Bottom-plate
 62
7
100
AcDbSpline
 70
8
 71
3
 72
8
 73
4
 74
0
 40
0
 40
0
 40
0
 40
0
 40
1
 40
1
 40
1
 40
1
 10
594.062404
 20
506.240456
 30
0.0
 10
593.505393
 20
505.918783
 30
0.0
 10
592.819065
 20
505.918783
 30
0.0
 10
592.262055
 20
506.240456
 30
0.0
  0
SPLINE
  5
14f
100
AcDbEntity
  8
Bottom-plate
 62
7
100
AcDbSpline
 70
8
 71
3
 72
8
 73
4
 74
0
 40
0
 40
0
 40
0
 40
0
 40
1
 40
1
 40
1
 40
1
 10
592.262055
 20
506.240456
 30
0.0
 10
591.705044
 20
506.562130
 30
0.0
 10
591.362013
 20
507.156584
 30
0.0
 10
591.362229
 20
507.799806
 30
0.0
  0
SPLINE
  5
150
100
AcDbEntity
  8
Bottom-plate
 62
7
100
AcDbSpline
 70
8
 71
3
 72
8
 73
4
 74
0
 40
0
 40
0
 40
0
 40
0
 40
1
 40
1
 40
1
 40
1
 10
591.362229
 20
507.799806
 30
0.0
 10
591.362013
 20
508.443028
 30
0.0
 10
591.705044
 20
509.037483
 30
0.0
 10
592.262055
 20
509.359156
 30
0.0
  0
SPLINE
  5
151
100
AcDbEntity
  8
Bottom-plate
 62
7
100
AcDbSpline
 70
8
 71
3
 72
8
 73
4
 74
0
 40
0
 40
0
 40
0
 40
0
 40
1
 40
1
 40
1
 40
1
 10
592.262055
 20
509.359156
 30
0.0
 10
592.819065
 20
509.680829
 30
0.0
 10
593.505393
 20
509.680829
 30
0.0
 10
594.062404
 20
509.359156
 30
0.0
  0
SPLINE
  5
152
100
AcDbEntity
  8
Bottom-plate
 62
7
100
AcDbSpline
 70
8
 71
3
 72
8
 73
4
 74
0
 40
0
 40
0
 40
0
 40
0
 40
1
 40
1
 40
1
 40
1
 10
594.062404
 20
509.359156
 30
0.0
 10
594.619415
 20
509.037483
 30
0.0
 10
594.962445
 20
508.443028
 30
0.0
 10
594.962229
 20
507.799806
 30
0.0
  0
LINE
  5
153
100
AcDbEntity
  8
Bottom-plate
 62
7
100
AcDbLine
 10
594.962229
 20
507.799806
 30
0.0
 11
594.962229
 21
507.799806
 31
0.0
  0
LINE
  5
154
100
AcDbEntity
  8
Bottom-plate
 62
7
100
AcDbLine
 10
0.021127
 20
7.997642
 30
0.0
 11
24.021126
 21
7.997642
 31
0.0
  0
LINE
  5
155
100
AcDbEntity
  8
Bottom-plate
 62
7
100
AcDbLine
 10
24.021126
 20
7.997642
 30
0.0
 11
24.021126
 21
-0.002359
 31
0.0
  0
LINE
  5
156
100
AcDbEntity
  8
Bottom-plate
 62
7
100
AcDbLine
 10
24.021126
 20
-0.002359
 30
0.0
 11
0.021127
 21
-0.002359
 31
0.0
  0
LINE
  5
157
100
AcDbEntity
  8
Bottom-plate
 62
7
100
AcDbLine
 10
0.021127
 20
-0.002359
 30
0.0
 11
0.021127
 21
7.997642
 31
0.0
  0
SPLINE
  5
158
100
AcDbEntity
  8
Bottom-plate
 62
7
100
AcDbSpline
 70
8
 71
3
 72
8
 73
4
 74
0
 40
0
 40
0
 40
0
 40
0
 40
1
 40
1
 40
1
 40
1
 10
5.962245
 20
3.799804
 30
0.0
 10
5.962461
 20
3.156582
 30
0.0
 10
5.619430
 20
2.562128
 30
0.0
 10
5.062419
 20
2.240454
 30
0.0
  0
SPLINE
  5
159
100
AcDbEntity
  8
Bottom-plate
 62
7
100
AcDbSpline
 70
8
 71
3
 72
8
 73
4
 74
0
 40
0
 40
0
 40
0
 40
0
 40
1
 40
1
 40
1
 40
1
 10
5.062419
 20
2.240454
 30
0.0
 10
4.505408
 20
1.918781
 30
0.0
 10
3.819081
 20
1.918781
 30
0.0
 10
3.262070
 20
2.240454
 30
0.0
  0
SPLINE
  5
15a
100
AcDbEntity
  8
Bottom-plate
 62
7
100
AcDbSpline
 70
8
 71
3
 72
8
 73
4
 74
0
 40
0
 40
0
 40
0
 40
0
 40
1
 40
1
 40
1
 40
1
 10
3.262070
 20
2.240454
 30
0.0
 10
2.705059
 20
2.562128
 30
0.0
 10
2.362028
 20
3.156582
 30
0.0
 10
2.362245
 20
3.799804
 30
0.0
  0
SPLINE
  5
15b
100
AcDbEntity
  8
Bottom-plate
 62
7
100
AcDbSpline
 70
8
 71
3
 72
8
 73
4
 74
0
 40
0
 40
0
 40
0
 40
0
 40
1
 40
1
 40
1
 40
1
 10
2.362245
 20
3.799804
 30
0.0
 10
2.362028
 20
4.443026
 30
0.0
 10
2.705059
 20
5.037480
 30
0.0
 10
3.262070
 20
5.359154
 30
0.0
  0
SPLINE
  5
15c
100
AcDbEntity
  8
Bottom-plate
 62
7
100
AcDbSpline
 70
8
 71
3
 72
8
 73
4
 74
0
 40
0
 40
0
 40
0
 40
0
 40
1
 40
1
 40
1
 40
1
 10
3.262070
 20
5.359154
 30
0.0
 10
3.819081
 20
5.680827
 30
0.0
 10
4.505408
 20
5.680827
 30
0.0
 10
5.062419
 20
5.359154
 30
0.0
  0
SPLINE
  5
15d
100
AcDbEntity
  8
Bottom-plate
 62
7
100
AcDbSpline
 70
8
 71
3
 72
8
 73
4
 74
0
 40
0
 40
0
 40
0
 40
0
 40
1
 40
1
 40
1
 40
1
 10
5.062419
 20
5.359154
 30
0.0
 10
5.619430
 20
5.037480
 30
0.0
 10
5.962461
 20
4.443026
 30
0.0
 10
5.962245
 20
3.799804
 30
0.0
  0
LINE
  5
15e
100
AcDbEntity
  8
Bottom-plate
 62
7
100
AcDbLine
 10
5.962245
 20
3.799804
 30
0.0
 11
5.962245
 21
3.799804
 31
0.0
  0
SPLINE
  5
15f
100
AcDbEntity
  8
Bottom-plate
 62
7
100
AcDbSpline
 70
8
 71
3
 72
8
 73
4
 74
0
 40
0
 40
0
 40
0
 40
0
 40
1
 40
1
 40
1
 40
1
 10
21.962244
 20
3.799804
 30
0.0
 10
21.962460
 20
3.156582
 30
0.0
 10
21.619429
 20
2.562128
 30
0.0
 10
21.062418
 20
2.240454
 30
0.0
  0
SPLINE
  5
160
100
AcDbEntity
  8
Bottom-plate
 62
7
100
AcDbSpline
 70
8
 71
3
 72
8
 73
4
 74
0
 40
0
 40
0
 40
0
 40
0
 40
1
 40
1
 40
1
 40
1
 10
21.062418
 20
2.240454
 30
0.0
 10
20.505408
 20
1.918781
 30
0.0
 10
19.819080
 20
1.918781
 30
0.0
 10
19.262069
 20
2.240454
 30
0.0
  0
SPLINE
  5
161
100
AcDbEntity
  8
Bottom-plate
 62
7
100
AcDbSpline
 70
8
 71
3
 72
8
 73
4
 74
0
 40
0
 40
0
 40
0
 40
0
 40
1
 40
1
 40
1
 40
1
 10
19.262069
 20
2.240454
 30
0.0
 10
18.705058
 20
2.562128
 30
0.0
 10
18.362028
 20
3.156582
 30
0.0
 10
18.362244
 20
3.799804
 30
0.0
  0
SPLINE
  5
162
100
AcDbEntity
  8
Bottom-plate
 62
7
100
AcDbSpline
 70
8
 71
3
 72
8
 73
4
 74
0
 40
0
 40
0
 40
0
 40
0
 40
1
 40
1
 40
1
 40
1
 10
18.362244
 20
3.799804
 30
0.0
 10
18.362028
 20
4.443026
 30
0.0
 10
18.705058
 20
5.037480
 30
0.0
 10
19.262069
 20
5.359154
 30
0.0
  0
SPLINE
  5
163
100
AcDbEntity
  8
Bottom-plate
 62
7
100
AcDbSpline
 70
8
 71
3
 72
8
 73
4
 74
0
 40
0
 40
0
 40
0
 40
0
 40
1
 40
1
 40
1
 40
1
 10
19.262069
 20
5.359154
 30
0.0
 10
19.819080
 20
5.680827
 30
0.0
 10
20.505408
 20
5.680827
 30
0.0
 10
21.062418
 20
5.359154
 30
0.0
  0
SPLINE
  5
164
100
AcDbEntity
  8
Bottom-plate
 62
7
100
AcDbSpline
 70
8
 71
3
 72
8
 73
4
 74
0
 40
0
 40
0
 40
0
 40
0
 40
1
 40
1
 40
1
 40
1
 10
21.062418
 20
5.359154
 30
0.0
 10
21.619429
 20
5.037480
 30
0.0
 10
21.962460
 20
4.443026
 30
0.0
 10
21.962244
 20
3.799804
 30
0.0
  0
LINE
  5
165
100
AcDbEntity
  8
Bottom-plate
 62
7
100
AcDbLine
 10
21.962244
 20
3.799804
 30
0.0
 11
21.962244
 21
3.799804
 31
0.0
  0
LINE
  5
166
100
AcDbEntity
  8
Bottom-plate
 62
7
100
AcDbLine
 10
0.021127
 20
511.997621
 30
0.0
 11
24.021126
 21
511.997621
 31
0.0
  0
LINE
  5
167
100
AcDbEntity
  8
Bottom-plate
 62
7
100
AcDbLine
 10
24.021126
 20
511.997621
 30
0.0
 11
24.021126
 21
503.997621
 31
0.0
  0
LINE
  5
168
100
AcDbEntity
  8
Bottom-plate
 62
7
100
AcDbLine
 10
24.021126
 20
503.997621
 30
0.0
 11
0.021127
 21
503.997621
 31
0.0
  0
LINE
  5
169
100
AcDbEntity
  8
Bottom-plate
 62
7
100
AcDbLine
 10
0.021127
 20
503.997621
 30
0.0
 11
0.021127
 21
511.997621
 31
0.0
  0
LINE
  5
16a
100
AcDbEntity
  8
Bottom-plate
 62
7
100
AcDbLine
 10
573.021121
 20
511.997621
 30
0.0
 11
597.021121
 21
511.997621
 31
0.0
  0
LINE
  5
16b
100
AcDbEntity
  8
Bottom-plate
 62
7
100
AcDbLine
 10
597.021121
 20
511.997621
 30
0.0
 11
597.021121
 21
503.997621
 31
0.0
  0
LINE
  5
16c
100
AcDbEntity
  8
Bottom-plate
 62
7
100
AcDbLine
 10
597.021121
 20
503.997621
 30
0.0
 11
573.021121
 21
503.997621
 31
0.0
  0
LINE
  5
16d
100
AcDbEntity
  8
Bottom-plate
 62
7
100
AcDbLine
 10
573.021121
 20
503.997621
 30
0.0
 11
573.021121
 21
511.997621
 31
0.0
  0
LINE
  5
16e
100
AcDbEntity
  8
Bottom-plate
 62
7
100
AcDbLine
 10
573.021121
 20
7.997642
 30
0.0
 11
597.021121
 21
7.997642
 31
0.0
  0
LINE
  5
16f
100
AcDbEntity
  8
Bottom-plate
 62
7
100
AcDbLine
 10
597.021121
 20
7.997642
 30
0.0
 11
597.021121
 21
-0.002359
 31
0.0
  0
LINE
  5
170
100
AcDbEntity
  8
Bottom-plate
 62
7
100
AcDbLine
 10
597.021121
 20
-0.002359
 30
0.0
 11
573.021121
 21
-0.002359
 31
0.0
  0
LINE
  5
171
100
AcDbEntity
  8
Bottom-plate
 62
7
100
AcDbLine
 10
573.021121
 20
-0.002359
 30
0.0
 11
573.021121
 21
7.997642
 31
0.0
  0
LINE
  5
172
100
AcDbEntity
  8
Top-plate
 62
7
100
AcDbLine
 10
-75.079044
 20
539.474636
 30
0.0
 11
671.920929
 21
539.474636
 31
0.0
  0
LINE
  5
173
100
AcDbEntity
  8
Top-plate
 62
7
100
AcDbLine
 10
671.920929
 20
539.474636
 30
0.0
 11
671.920929
 21
-12.525361
 31
0.0
  0
LINE
  5
174
100
AcDbEntity
  8
Top-plate
 62
7
100
AcDbLine
 10
671.920929
 20
-12.525361
 30
0.0
 11
-75.079044
 21
-12.525361
 31
0.0
  0
LINE
  5
175
100
AcDbEntity
  8
Top-plate
 62
7
100
AcDbLine
 10
-75.079044
 20
-12.525361
 30
0.0
 11
-75.079044
 21
539.474636
 31
0.0
  0
LINE
  5
176
100
AcDbEntity
  8
Makeblock
 62
7
100
AcDbLine
 10
-74.978878
 20
576.997632
 30
0.0
 11
672.021095
 21
576.997632
 31
0.0
  0
LINE
  5
177
100
AcDbEntity
  8
Makeblock
 62
7
100
AcDbLine
 10
672.021095
 20
576.997632
 30
0.0
 11
672.021095
 21
-65.002382
 31
0.0
  0
LINE
  5
178
100
AcDbEntity
  8
Makeblock
 62
7
100
AcDbLine
 10
672.021095
 20
-65.002382
 30
0.0
 11
-74.978878
 21
-65.002382
 31
0.0
  0
LINE
  5
179
100
AcDbEntity
  8
Makeblock
 62
7
100
AcDbLine
 10
-74.978878
 20
-65.002382
 30
0.0
 11
-74.978878
 21
576.997632
 31
0.0
  0
LINE
  5
17a
100
AcDbEntity
  8
Makeblock
 62
7
100
AcDbLine
 10
0.021127
 20
511.997621
 30
0.0
 11
597.021090
 21
511.997621
 31
0.0
  0
LINE
  5
17b
100
AcDbEntity
  8
Makeblock
 62
7
100
AcDbLine
 10
597.021090
 20
511.997621
 30
0.0
 11
597.021090
 21
-0.002371
 31
0.0
  0
LINE
  5
17c
100
AcDbEntity
  8
Makeblock
 62
7
100
AcDbLine
 10
597.021090
 20
-0.002371
 30
0.0
 11
0.021127
 21
-0.002371
 31
0.0
  0
LINE
  5
17d
100
AcDbEntity
  8
Makeblock
 62
7
100
AcDbLine
 10
0.021127
 20
-0.002371
 30
0.0
 11
0.021127
 21
511.997621
 31
0.0
  0
LINE
  5
17e
100
AcDbEntity
  8
Makeblock
 62
7
100
AcDbLine
 10
542.688873
 20
763.883974
 30
0.0
 11
566.688873
 21
763.883974
 31
0.0
  0
LINE
  5
17f
100
AcDbEntity
  8
Makeblock
 62
7
100
AcDbLine
 10
566.688873
 20
763.883974
 30
0.0
 11
566.688873
 21
755.883974
 31
0.0
  0
LINE
  5
180
100
AcDbEntity
  8
Makeblock
 62
7
100
AcDbLine
 10
566.688873
 20
755.883974
 30
0.0
 11
542.688873
 21
755.883974
 31
0.0
  0
LINE
  5
181
100
AcDbEntity
  8
Makeblock
 62
7
100
AcDbLine
 10
542.688873
 20
755.883974
 30
0.0
 11
542.688873
 21
763.883974
 31
0.0
  0
SPLINE
  5
182
100
AcDbEntity
  8
Makeblock
 62
7
100
AcDbSpline
 70
8
 71
3
 72
8
 73
4
 74
0
 40
0
 40
0
 40
0
 40
0
 40
1
 40
1
 40
1
 40
1
 10
548.629993
 20
759.686109
 30
0.0
 10
548.630209
 20
759.042886
 30
0.0
 10
548.287179
 20
758.448432
 30
0.0
 10
547.730168
 20
758.126759
 30
0.0
  0
SPLINE
  5
183
100
AcDbEntity
  8
Makeblock
 62
7
100
AcDbSpline
 70
8
 71
3
 72
8
 73
4
 74
0
 40
0
 40
0
 40
0
 40
0
 40
1
 40
1
 40
1
 40
1
 10
547.730168
 20
758.126759
 30
0.0
 10
547.173157
 20
757.805085
 30
0.0
 10
546.486829
 20
757.805085
 30
0.0
 10
545.929819
 20
758.126759
 30
0.0
  0
SPLINE
  5
184
100
AcDbEntity
  8
Makeblock
 62
7
100
AcDbSpline
 70
8
 71
3
 72
8
 73
4
 74
0
 40
0
 40
0
 40
0
 40
0
 40
1
 40
1
 40
1
 40
1
 10
545.929819
 20
758.126759
 30
0.0
 10
545.372808
 20
758.448432
 30
0.0
 10
545.029777
 20
759.042886
 30
0.0
 10
545.029993
 20
759.686109
 30
0.0
  0
SPLINE
  5
185
100
AcDbEntity
  8
Makeblock
 62
7
100
AcDbSpline
 70
8
 71
3
 72
8
 73
4
 74
0
 40
0
 40
0
 40
0
 40
0
 40
1
 40
1
 40
1
 40
1
 10
545.029993
 20
759.686109
 30
0.0
 10
545.029777
 20
760.329331
 30
0.0
 10
545.372808
 20
760.923785
 30
0.0
 10
545.929819
 20
761.245458
 30
0.0
  0
SPLINE
  5
186
100
AcDbEntity
  8
Makeblock
 62
7
100
AcDbSpline
 70
8
 71
3
 72
8
 73
4
 74
0
 40
0
 40
0
 40
0
 40
0
 40
1
 40
1
 40
1
 40
1
 10
545.929819
 20
761.245458
 30
0.0
 10
546.486829
 20
761.567132
 30
0.0
 10
547.173157
 20
761.567132
 30
0.0
 10
547.730168
 20
761.245458
 30
0.0
  0
SPLINE
  5
187
100
AcDbEntity
  8
Makeblock
 62
7
100
AcDbSpline
 70
8
 71
3
 72
8
 73
4
 74
0
 40
0
 40
0
 40
0
 40
0
 40
1
 40
1
 40
1
 40
1
 10
547.730168
 20
761.245458
 30
0.0
 10
548.287179
 20
760.923785
 30
0.0
 10
548.630209
 20
760.329331
 30
0.0
 10
548.629993
 20
759.686109
 30
0.0
  0
LINE
  5
188
100
AcDbEntity
  8
Makeblock
 62
7
100
AcDbLine
 10
548.629993
 20
759.686109
 30
0.0
 11
548.629993
 21
759.686109
 31
0.0
  0
SPLINE
  5
189
100
AcDbEntity
  8
Makeblock
 62
7
100
AcDbSpline
 70
8
 71
3
 72
8
 73
4
 74
0
 40
0
 40
0
 40
0
 40
0
 40
1
 40
1
 40
1
 40
1
 10
564.629992
 20
759.686109
 30
0.0
 10
564.630208
 20
759.042886
 30
0.0
 10
564.287178
 20
758.448432
 30
0.0
 10
563.730167
 20
758.126759
 30
0.0
  0
SPLINE
  5
18a
100
AcDbEntity
  8
Makeblock
 62
7
100
AcDbSpline
 70
8
 71
3
 72
8
 73
4
 74
0
 40
0
 40
0
 40
0
 40
0
 40
1
 40
1
 40
1
 40
1
 10
563.730167
 20
758.126759
 30
0.0
 10
563.173156
 20
757.805085
 30
0.0
 10
562.486828
 20
757.805085
 30
0.0
 10
561.929818
 20
758.126759
 30
0.0
  0
SPLINE
  5
18b
100
AcDbEntity
  8
Makeblock
 62
7
100
AcDbSpline
 70
8
 71
3
 72
8
 73
4
 74
0
 40
0
 40
0
 40
0
 40
0
 40
1
 40
1
 40
1
 40
1
 10
561.929818
 20
758.126759
 30
0.0
 10
561.372807
 20
758.448432
 30
0.0
 10
561.029776
 20
759.042886
 30
0.0
 10
561.029992
 20
759.686109
 30
0.0
  0
SPLINE
  5
18c
100
AcDbEntity
  8
Makeblock
 62
7
100
AcDbSpline
 70
8
 71
3
 72
8
 73
4
 74
0
 40
0
 40
0
 40
0
 40
0
 40
1
 40
1
 40
1
 40
1
 10
561.029992
 20
759.686109
 30
0.0
 10
561.029776
 20
760.329331
 30
0.0
 10
561.372807
 20
760.923785
 30
0.0
 10
561.929818
 20
761.245458
 30
0.0
  0
SPLINE
  5
18d
100
AcDbEntity
  8
Makeblock
 62
7
100
AcDbSpline
 70
8
 71
3
 72
8
 73
4
 74
0
 40
0
 40
0
 40
0
 40
0
 40
1
 40
1
 40
1
 40
1
 10
561.929818
 20
761.245458
 30
0.0
 10
562.486828
 20
761.567132
 30
0.0
 10
563.173156
 20
761.567132
 30
0.0
 10
563.730167
 20
761.245458
 30
0.0
  0
SPLINE
  5
18e
100
AcDbEntity
  8
Makeblock
 62
7
100
AcDbSpline
 70
8
 71
3
 72
8
 73
4
 74
0
 40
0
 40
0
 40
0
 40
0
 40
1
 40
1
 40
1
 40
1
 10
563.730167
 20
761.245458
 30
0.0
 10
564.287178
 20
760.923785
 30
0.0
 10
564.630208
 20
760.329331
 30
0.0
 10
564.629992
 20
759.686109
 30
0.0
  0
LINE
  5
18f
100
AcDbEntity
  8
Makeblock
 62
7
100
AcDbLine
 10
564.629992
 20
759.686109
 30
0.0
 11
564.629992
 21
759.686109
 31
0.0
  0
SPLINE
  5
190
100
AcDbEntity
  8
Makeblock
 62
7
100
AcDbSpline
 70
8
 71
3
 72
8
 73
4
 74
0
 40
0
 40
0
 40
0
 40
0
 40
1
 40
1
 40
1
 40
1
 10
546.829993
 20
764.883972
 30
0.0
 10
546.829993
 20
754.883964
 30
0.0
 10
546.829993
 20
754.883964
 30
0.0
 10
546.829993
 20
754.883964
 30
0.0
  0
SPLINE
  5
191
100
AcDbEntity
  8
Makeblock
 62
7
100
AcDbSpline
 70
8
 71
3
 72
8
 73
4
 74
0
 40
0
 40
0
 40
0
 40
0
 40
1
 40
1
 40
1
 40
1
 10
562.829992
 20
764.883972
 30
0.0
 10
562.829992
 20
754.883964
 30
0.0
 10
562.829992
 20
754.883964
 30
0.0
 10
562.829992
 20
754.883964
 30
0.0
  0
LINE
  5
192
100
AcDbEntity
  8
Makeblock
 62
7
100
AcDbLine
 10
0.021127
 20
7.997639
 30
0.0
 11
24.021127
 21
7.997639
 31
0.0
  0
LINE
  5
193
100
AcDbEntity
  8
Makeblock
 62
7
100
AcDbLine
 10
24.021127
 20
7.997639
 30
0.0
 11
24.021127
 21
-0.002361
 31
0.0
  0
LINE
  5
194
100
AcDbEntity
  8
Makeblock
 62
7
100
AcDbLine
 10
24.021127
 20
-0.002361
 30
0.0
 11
0.021127
 21
-0.002361
 31
0.0
  0
LINE
  5
195
100
AcDbEntity
  8
Makeblock
 62
7
100
AcDbLine
 10
0.021127
 20
-0.002361
 30
0.0
 11
0.021127
 21
7.997639
 31
0.0
  0
SPLINE
  5
196
100
AcDbEntity
  8
Makeblock
 62
7
100
AcDbSpline
 70
8
 71
3
 72
8
 73
4
 74
0
 40
0
 40
0
 40
0
 40
0
 40
1
 40
1
 40
1
 40
1
 10
5.962245
 20
3.799801
 30
0.0
 10
5.962461
 20
3.156579
 30
0.0
 10
5.619430
 20
2.562125
 30
0.0
 10
5.062419
 20
2.240451
 30
0.0
  0
SPLINE
  5
197
100
AcDbEntity
  8
Makeblock
 62
7
100
AcDbSpline
 70
8
 71
3
 72
8
 73
4
 74
0
 40
0
 40
0
 40
0
 40
0
 40
1
 40
1
 40
1
 40
1
 10
5.062419
 20
2.240451
 30
0.0
 10
4.505408
 20
1.918778
 30
0.0
 10
3.819081
 20
1.918778
 30
0.0
 10
3.262070
 20
2.240451
 30
0.0
  0
SPLINE
  5
198
100
AcDbEntity
  8
Makeblock
 62
7
100
AcDbSpline
 70
8
 71
3
 72
8
 73
4
 74
0
 40
0
 40
0
 40
0
 40
0
 40
1
 40
1
 40
1
 40
1
 10
3.262070
 20
2.240451
 30
0.0
 10
2.705059
 20
2.562125
 30
0.0
 10
2.362028
 20
3.156579
 30
0.0
 10
2.362245
 20
3.799801
 30
0.0
  0
SPLINE
  5
199
100
AcDbEntity
  8
Makeblock
 62
7
100
AcDbSpline
 70
8
 71
3
 72
8
 73
4
 74
0
 40
0
 40
0
 40
0
 40
0
 40
1
 40
1
 40
1
 40
1
 10
2.362245
 20
3.799801
 30
0.0
 10
2.362028
 20
4.443023
 30
0.0
 10
2.705059
 20
5.037477
 30
0.0
 10
3.262070
 20
5.359151
 30
0.0
  0
SPLINE
  5
19a
100
AcDbEntity
  8
Makeblock
 62
7
100
AcDbSpline
 70
8
 71
3
 72
8
 73
4
 74
0
 40
0
 40
0
 40
0
 40
0
 40
1
 40
1
 40
1
 40
1
 10
3.262070
 20
5.359151
 30
0.0
 10
3.819081
 20
5.680824
 30
0.0
 10
4.505408
 20
5.680824
 30
0.0
 10
5.062419
 20
5.359151
 30
0.0
  0
SPLINE
  5
19b
100
AcDbEntity
  8
Makeblock
 62
7
100
AcDbSpline
 70
8
 71
3
 72
8
 73
4
 74
0
 40
0
 40
0
 40
0
 40
0
 40
1
 40
1
 40
1
 40
1
 10
5.062419
 20
5.359151
 30
0.0
 10
5.619430
 20
5.037477
 30
0.0
 10
5.962461
 20
4.443023
 30
0.0
 10
5.962245
 20
3.799801
 30
0.0
  0
LINE
  5
19c
100
AcDbEntity
  8
Makeblock
 62
7
100
AcDbLine
 10
5.962245
 20
3.799801
 30
0.0
 11
5.962245
 21
3.799801
 31
0.0
  0
SPLINE
  5
19d
100
AcDbEntity
  8
Makeblock
 62
7
100
AcDbSpline
 70
8
 71
3
 72
8
 73
4
 74
0
 40
0
 40
0
 40
0
 40
0
 40
1
 40
1
 40
1
 40
1
 10
21.962244
 20
3.799801
 30
0.0
 10
21.962460
 20
3.156579
 30
0.0
 10
21.619429
 20
2.562125
 30
0.0
 10
21.062418
 20
2.240451
 30
0.0
  0
SPLINE
  5
19e
100
AcDbEntity
  8
Makeblock
 62
7
100
AcDbSpline
 70
8
 71
3
 72
8
 73
4
 74
0
 40
0
 40
0
 40
0
 40
0
 40
1
 40
1
 40
1
 40
1
 10
21.062418
 20
2.240451
 30
0.0
 10
20.505408
 20
1.918778
 30
0.0
 10
19.819080
 20
1.918778
 30
0.0
 10
19.262069
 20
2.240451
 30
0.0
  0
SPLINE
  5
19f
100
AcDbEntity
  8
Makeblock
 62
7
100
AcDbSpline
 70
8
 71
3
 72
8
 73
4
 74
0
 40
0
 40
0
 40
0
 40
0
 40
1
 40
1
 40
1
 40
1
 10
19.262069
 20
2.240451
 30
0.0
 10
18.705058
 20
2.562125
 30
0.0
 10
18.362028
 20
3.156579
 30
0.0
 10
18.362244
 20
3.799801
 30
0.0
  0
SPLINE
  5
1a0
100
AcDbEntity
  8
Makeblock
 62
7
100
AcDbSpline
 70
8
 71
3
 72
8
 73
4
 74
0
 40
0
 40
0
 40
0
 40
0
 40
1
 40
1
 40
1
 40
1
 10
18.362244
 20
3.799801
 30
0.0
 10
18.362028
 20
4.443023
 30
0.0
 10
18.705058
 20
5.037477
 30
0.0
 10
19.262069
 20
5.359151
 30
0.0
  0
SPLINE
  5
1a1
100
AcDbEntity
  8
Makeblock
 62
7
100
AcDbSpline
 70
8
 71
3
 72
8
 73
4
 74
0
 40
0
 40
0
 40
0
 40
0
 40
1
 40
1
 40
1
 40
1
 10
19.262069
 20
5.359151
 30
0.0
 10
19.819080
 20
5.680824
 30
0.0
 10
20.505408
 20
5.680824
 30
0.0
 10
21.062418
 20
5.359151
 30
0.0
  0
SPLINE
  5
1a2
100
AcDbEntity
  8
Makeblock
 62
7
100
AcDbSpline
 70
8
 71
3
 72
8
 73
4
 74
0
 40
0
 40
0
 40
0
 40
0
 40
1
 40
1
 40
1
 40
1
 10
21.062418
 20
5.359151
 30
0.0
 10
21.619429
 20
5.037477
 30
0.0
 10
21.962460
 20
4.443023
 30
0.0
 10
21.962244
 20
3.799801
 30
0.0
  0
LINE
  5
1a3
100
AcDbEntity
  8
Makeblock
 62
7
100
AcDbLine
 10
21.962244
 20
3.799801
 30
0.0
 11
21.962244
 21
3.799801
 31
0.0
  0
SPLINE
  5
1a4
100
AcDbEntity
  8
Makeblock
 62
7
100
AcDbSpline
 70
8
 71
3
 72
8
 73
4
 74
0
 40
0
 40
0
 40
0
 40
0
 40
1
 40
1
 40
1
 40
1
 10
4.138713
 20
7.458905
 30
0.0
 10
4.138713
 20
0.536417
 30
0.0
 10
4.138713
 20
0.536417
 30
0.0
 10
4.138713
 20
0.536417
 30
0.0
  0
SPLINE
  5
1a5
100
AcDbEntity
  8
Makeblock
 62
7
100
AcDbSpline
 70
8
 71
3
 72
8
 73
4
 74
0
 40
0
 40
0
 40
0
 40
0
 40
1
 40
1
 40
1
 40
1
 10
20.185775
 20
7.458905
 30
0.0
 10
20.185775
 20
0.536417
 30
0.0
 10
20.185775
 20
0.536417
 30
0.0
 10
20.185775
 20
0.536417
 30
0.0
  0
LINE
  5
1a6
100
AcDbEntity
  8
Makeblock
 62
7
100
AcDbLine
 10
-74.978870
 20
-0.002399
 30
0.0
 11
0.021127
 21
-0.002399
 31
0.0
  0
LINE
  5
1a7
100
AcDbEntity
  8
Makeblock
 62
7
100
AcDbLine
 10
0.021127
 20
-0.002399
 30
0.0
 11
0.021127
 21
-10.002399
 31
0.0
  0
LINE
  5
1a8
100
AcDbEntity
  8
Makeblock
 62
7
100
AcDbLine
 10
0.021127
 20
-10.002399
 30
0.0
 11
-74.978870
 21
-10.002399
 31
0.0
  0
LINE
  5
1a9
100
AcDbEntity
  8
Makeblock
 62
7
100
AcDbLine
 10
-74.978870
 20
-10.002399
 30
0.0
 11
-74.978870
 21
-0.002399
 31
0.0
  0
LINE
  5
1aa
100
AcDbEntity
  8
Makeblock
 62
7
100
AcDbLine
 10
597.021073
 20
521.997601
 30
0.0
 11
672.021070
 21
521.997601
 31
0.0
  0
LINE
  5
1ab
100
AcDbEntity
  8
Makeblock
 62
7
100
AcDbLine
 10
672.021070
 20
521.997601
 30
0.0
 11
672.021070
 21
511.997601
 31
0.0
  0
LINE
  5
1ac
100
AcDbEntity
  8
Makeblock
 62
7
100
AcDbLine
 10
672.021070
 20
511.997601
 30
0.0
 11
597.021073
 21
511.997601
 31
0.0
  0
LINE
  5
1ad
100
AcDbEntity
  8
Makeblock
 62
7
100
AcDbLine
 10
597.021073
 20
511.997601
 30
0.0
 11
597.021073
 21
521.997601
 31
0.0
  0
LINE
  5
1ae
100
AcDbEntity
  8
Makeblock
 62
7
100
AcDbLine
 10
597.021073
 20
511.997621
 30
0.0
 11
597.021073
 21
576.997621
 31
0.0
  0
LINE
  5
1af
100
AcDbEntity
  8
Makeblock
 62
7
100
AcDbLine
 10
597.021073
 20
576.997621
 30
0.0
 11
607.021073
 21
576.997621
 31
0.0
  0
LINE
  5
1b0
100
AcDbEntity
  8
Makeblock
 62
7
100
AcDbLine
 10
607.021073
 20
576.997621
 30
0.0
 11
607.021073
 21
511.997621
 31
0.0
  0
LINE
  5
1b1
100
AcDbEntity
  8
Makeblock
 62
7
100
AcDbLine
 10
607.021073
 20
511.997621
 30
0.0
 11
597.021073
 21
511.997621
 31
0.0
  0
LINE
  5
1b2
100
AcDbEntity
  8
Makeblock
 62
7
100
AcDbLine
 10
-9.978874
 20
-65.002410
 30
0.0
 11
-9.978874
 21
-0.002410
 31
0.0
  0
LINE
  5
1b3
100
AcDbEntity
  8
Makeblock
 62
7
100
AcDbLine
 10
-9.978874
 20
-0.002410
 30
0.0
 11
0.021126
 21
-0.002410
 31
0.0
  0
LINE
  5
1b4
100
AcDbEntity
  8
Makeblock
 62
7
100
AcDbLine
 10
0.021126
 20
-0.002410
 30
0.0
 11
0.021126
 21
-65.002410
 31
0.0
  0
LINE
  5
1b5
100
AcDbEntity
  8
Makeblock
 62
7
100
AcDbLine
 10
0.021126
 20
-65.002410
 30
0.0
 11
-9.978874
 21
-65.002410
 31
0.0
  0
LINE
  5
1b6
100
AcDbEntity
  8
Makeblock
 62
7
100
AcDbLine
 10
0.021127
 20
511.997647
 30
0.0
 11
24.021126
 21
511.997647
 31
0.0
  0
LINE
  5
1b7
100
AcDbEntity
  8
Makeblock
 62
7
100
AcDbLine
 10
24.021126
 20
511.997647
 30
0.0
 11
24.021126
 21
503.997647
 31
0.0
  0
LINE
  5
1b8
100
AcDbEntity
  8
Makeblock
 62
7
100
AcDbLine
 10
24.021126
 20
503.997647
 30
0.0
 11
0.021127
 21
503.997647
 31
0.0
  0
LINE
  5
1b9
100
AcDbEntity
  8
Makeblock
 62
7
100
AcDbLine
 10
0.021127
 20
503.997647
 30
0.0
 11
0.021127
 21
511.997647
 31
0.0
  0
SPLINE
  5
1ba
100
AcDbEntity
  8
Makeblock
 62
7
100
AcDbSpline
 70
8
 71
3
 72
8
 73
4
 74
0
 40
0
 40
0
 40
0
 40
0
 40
1
 40
1
 40
1
 40
1
 10
5.962244
 20
507.799809
 30
0.0
 10
5.962460
 20
507.156587
 30
0.0
 10
5.619429
 20
506.562133
 30
0.0
 10
5.062419
 20
506.240459
 30
0.0
  0
SPLINE
  5
1bb
100
AcDbEntity
  8
Makeblock
 62
7
100
AcDbSpline
 70
8
 71
3
 72
8
 73
4
 74
0
 40
0
 40
0
 40
0
 40
0
 40
1
 40
1
 40
1
 40
1
 10
5.062419
 20
506.240459
 30
0.0
 10
4.505408
 20
505.918786
 30
0.0
 10
3.819080
 20
505.918786
 30
0.0
 10
3.262070
 20
506.240459
 30
0.0
  0
SPLINE
  5
1bc
100
AcDbEntity
  8
Makeblock
 62
7
100
AcDbSpline
 70
8
 71
3
 72
8
 73
4
 74
0
 40
0
 40
0
 40
0
 40
0
 40
1
 40
1
 40
1
 40
1
 10
3.262070
 20
506.240459
 30
0.0
 10
2.705059
 20
506.562133
 30
0.0
 10
2.362028
 20
507.156587
 30
0.0
 10
2.362244
 20
507.799809
 30
0.0
  0
SPLINE
  5
1bd
100
AcDbEntity
  8
Makeblock
 62
7
100
AcDbSpline
 70
8
 71
3
 72
8
 73
4
 74
0
 40
0
 40
0
 40
0
 40
0
 40
1
 40
1
 40
1
 40
1
 10
2.362244
 20
507.799809
 30
0.0
 10
2.362028
 20
508.443031
 30
0.0
 10
2.705059
 20
509.037485
 30
0.0
 10
3.262070
 20
509.359159
 30
0.0
  0
SPLINE
  5
1be
100
AcDbEntity
  8
Makeblock
 62
7
100
AcDbSpline
 70
8
 71
3
 72
8
 73
4
 74
0
 40
0
 40
0
 40
0
 40
0
 40
1
 40
1
 40
1
 40
1
 10
3.262070
 20
509.359159
 30
0.0
 10
3.819080
 20
509.680832
 30
0.0
 10
4.505408
 20
509.680832
 30
0.0
 10
5.062419
 20
509.359159
 30
0.0
  0
SPLINE
  5
1bf
100
AcDbEntity
  8
Makeblock
 62
7
100
AcDbSpline
 70
8
 71
3
 72
8
 73
4
 74
0
 40
0
 40
0
 40
0
 40
0
 40
1
 40
1
 40
1
 40
1
 10
5.062419
 20
509.359159
 30
0.0
 10
5.619429
 20
509.037485
 30
0.0
 10
5.962460
 20
508.443031
 30
0.0
 10
5.962244
 20
507.799809
 30
0.0
  0
LINE
  5
1c0
100
AcDbEntity
  8
Makeblock
 62
7
100
AcDbLine
 10
5.962244
 20
507.799809
 30
0.0
 11
5.962244
 21
507.799809
 31
0.0
  0
SPLINE
  5
1c1
100
AcDbEntity
  8
Makeblock
 62
7
100
AcDbSpline
 70
8
 71
3
 72
8
 73
4
 74
0
 40
0
 40
0
 40
0
 40
0
 40
1
 40
1
 40
1
 40
1
 10
21.962243
 20
507.799809
 30
0.0
 10
21.962459
 20
507.156587
 30
0.0
 10
21.619428
 20
506.562133
 30
0.0
 10
21.062418
 20
506.240459
 30
0.0
  0
SPLINE
  5
1c2
100
AcDbEntity
  8
Makeblock
 62
7
100
AcDbSpline
 70
8
 71
3
 72
8
 73
4
 74
0
 40
0
 40
0
 40
0
 40
0
 40
1
 40
1
 40
1
 40
1
 10
21.062418
 20
506.240459
 30
0.0
 10
20.505407
 20
505.918786
 30
0.0
 10
19.819079
 20
505.918786
 30
0.0
 10
19.262069
 20
506.240459
 30
0.0
  0
SPLINE
  5
1c3
100
AcDbEntity
  8
Makeblock
 62
7
100
AcDbSpline
 70
8
 71
3
 72
8
 73
4
 74
0
 40
0
 40
0
 40
0
 40
0
 40
1
 40
1
 40
1
 40
1
 10
19.262069
 20
506.240459
 30
0.0
 10
18.705058
 20
506.562133
 30
0.0
 10
18.362027
 20
507.156587
 30
0.0
 10
18.362243
 20
507.799809
 30
0.0
  0
SPLINE
  5
1c4
100
AcDbEntity
  8
Makeblock
 62
7
100
AcDbSpline
 70
8
 71
3
 72
8
 73
4
 74
0
 40
0
 40
0
 40
0
 40
0
 40
1
 40
1
 40
1
 40
1
 10
18.362243
 20
507.799809
 30
0.0
 10
18.362027
 20
508.443031
 30
0.0
 10
18.705058
 20
509.037485
 30
0.0
 10
19.262069
 20
509.359159
 30
0.0
  0
SPLINE
  5
1c5
100
AcDbEntity
  8
Makeblock
 62
7
100
AcDbSpline
 70
8
 71
3
 72
8
 73
4
 74
0
 40
0
 40
0
 40
0
 40
0
 40
1
 40
1
 40
1
 40
1
 10
19.262069
 20
509.359159
 30
0.0
 10
19.819079
 20
509.680832
 30
0.0
 10
20.505407
 20
509.680832
 30
0.0
 10
21.062418
 20
509.359159
 30
0.0
  0
SPLINE
  5
1c6
100
AcDbEntity
  8
Makeblock
 62
7
100
AcDbSpline
 70
8
 71
3
 72
8
 73
4
 74
0
 40
0
 40
0
 40
0
 40
0
 40
1
 40
1
 40
1
 40
1
 10
21.062418
 20
509.359159
 30
0.0
 10
21.619428
 20
509.037485
 30
0.0
 10
21.962459
 20
508.443031
 30
0.0
 10
21.962243
 20
507.799809
 30
0.0
  0
LINE
  5
1c7
100
AcDbEntity
  8
Makeblock
 62
7
100
AcDbLine
 10
21.962243
 20
507.799809
 30
0.0
 11
21.962243
 21
507.799809
 31
0.0
  0
SPLINE
  5
1c8
100
AcDbEntity
  8
Makeblock
 62
7
100
AcDbSpline
 70
8
 71
3
 72
8
 73
4
 74
0
 40
0
 40
0
 40
0
 40
0
 40
1
 40
1
 40
1
 40
1
 10
4.138712
 20
511.458913
 30
0.0
 10
4.138712
 20
504.536425
 30
0.0
 10
4.138712
 20
504.536425
 30
0.0
 10
4.138712
 20
504.536425
 30
0.0
  0
SPLINE
  5
1c9
100
AcDbEntity
  8
Makeblock
 62
7
100
AcDbSpline
 70
8
 71
3
 72
8
 73
4
 74
0
 40
0
 40
0
 40
0
 40
0
 40
1
 40
1
 40
1
 40
1
 10
20.185775
 20
511.458913
 30
0.0
 10
20.185775
 20
504.536425
 30
0.0
 10
20.185775
 20
504.536425
 30
0.0
 10
20.185775
 20
504.536425
 30
0.0
  0
LINE
  5
1ca
100
AcDbEntity
  8
Makeblock
 62
7
100
AcDbLine
 10
573.021110
 20
7.997638
 30
0.0
 11
597.021109
 21
7.997638
 31
0.0
  0
LINE
  5
1cb
100
AcDbEntity
  8
Makeblock
 62
7
100
AcDbLine
 10
597.021109
 20
7.997638
 30
0.0
 11
597.021109
 21
-0.002362
 31
0.0
  0
LINE
  5
1cc
100
AcDbEntity
  8
Makeblock
 62
7
100
AcDbLine
 10
597.021109
 20
-0.002362
 30
0.0
 11
573.021110
 21
-0.002362
 31
0.0
  0
LINE
  5
1cd
100
AcDbEntity
  8
Makeblock
 62
7
100
AcDbLine
 10
573.021110
 20
-0.002362
 30
0.0
 11
573.021110
 21
7.997638
 31
0.0
  0
SPLINE
  5
1ce
100
AcDbEntity
  8
Makeblock
 62
7
100
AcDbSpline
 70
8
 71
3
 72
8
 73
4
 74
0
 40
0
 40
0
 40
0
 40
0
 40
1
 40
1
 40
1
 40
1
 10
578.962227
 20
3.799801
 30
0.0
 10
578.962444
 20
3.156579
 30
0.0
 10
578.619413
 20
2.562125
 30
0.0
 10
578.062402
 20
2.240451
 30
0.0
  0
SPLINE
  5
1cf
100
AcDbEntity
  8
Makeblock
 62
7
100
AcDbSpline
 70
8
 71
3
 72
8
 73
4
 74
0
 40
0
 40
0
 40
0
 40
0
 40
1
 40
1
 40
1
 40
1
 10
578.062402
 20
2.240451
 30
0.0
 10
577.505391
 20
1.918778
 30
0.0
 10
576.819064
 20
1.918778
 30
0.0
 10
576.262053
 20
2.240451
 30
0.0
  0
SPLINE
  5
1d0
100
AcDbEntity
  8
Makeblock
 62
7
100
AcDbSpline
 70
8
 71
3
 72
8
 73
4
 74
0
 40
0
 40
0
 40
0
 40
0
 40
1
 40
1
 40
1
 40
1
 10
576.262053
 20
2.240451
 30
0.0
 10
575.705042
 20
2.562125
 30
0.0
 10
575.362011
 20
3.156579
 30
0.0
 10
575.362227
 20
3.799801
 30
0.0
  0
SPLINE
  5
1d1
100
AcDbEntity
  8
Makeblock
 62
7
100
AcDbSpline
 70
8
 71
3
 72
8
 73
4
 74
0
 40
0
 40
0
 40
0
 40
0
 40
1
 40
1
 40
1
 40
1
 10
575.362227
 20
3.799801
 30
0.0
 10
575.362011
 20
4.443023
 30
0.0
 10
575.705042
 20
5.037477
 30
0.0
 10
576.262053
 20
5.359151
 30
0.0
  0
SPLINE
  5
1d2
100
AcDbEntity
  8
Makeblock
 62
7
100
AcDbSpline
 70
8
 71
3
 72
8
 73
4
 74
0
 40
0
 40
0
 40
0
 40
0
 40
1
 40
1
 40
1
 40
1
 10
576.262053
 20
5.359151
 30
0.0
 10
576.819064
 20
5.680824
 30
0.0
 10
577.505391
 20
5.680824
 30
0.0
 10
578.062402
 20
5.359151
 30
0.0
  0
SPLINE
  5
1d3
100
AcDbEntity
  8
Makeblock
 62
7
100
AcDbSpline
 70
8
 71
3
 72
8
 73
4
 74
0
 40
0
 40
0
 40
0
 40
0
 40
1
 40
1
 40
1
 40
1
 10
578.062402
 20
5.359151
 30
0.0
 10
578.619413
 20
5.037477
 30
0.0
 10
578.962444
 20
4.443023
 30
0.0
 10
578.962227
 20
3.799801
 30
0.0
  0
LINE
  5
1d4
100
AcDbEntity
  8
Makeblock
 62
7
100
AcDbLine
 10
578.962227
 20
3.799801
 30
0.0
 11
578.962227
 21
3.799801
 31
0.0
  0
SPLINE
  5
1d5
100
AcDbEntity
  8
Makeblock
 62
7
100
AcDbSpline
 70
8
 71
3
 72
8
 73
4
 74
0
 40
0
 40
0
 40
0
 40
0
 40
1
 40
1
 40
1
 40
1
 10
594.962226
 20
3.799801
 30
0.0
 10
594.962443
 20
3.156579
 30
0.0
 10
594.619412
 20
2.562125
 30
0.0
 10
594.062401
 20
2.240451
 30
0.0
  0
SPLINE
  5
1d6
100
AcDbEntity
  8
Makeblock
 62
7
100
AcDbSpline
 70
8
 71
3
 72
8
 73
4
 74
0
 40
0
 40
0
 40
0
 40
0
 40
1
 40
1
 40
1
 40
1
 10
594.062401
 20
2.240451
 30
0.0
 10
593.505390
 20
1.918778
 30
0.0
 10
592.819063
 20
1.918778
 30
0.0
 10
592.262052
 20
2.240451
 30
0.0
  0
SPLINE
  5
1d7
100
AcDbEntity
  8
Makeblock
 62
7
100
AcDbSpline
 70
8
 71
3
 72
8
 73
4
 74
0
 40
0
 40
0
 40
0
 40
0
 40
1
 40
1
 40
1
 40
1
 10
592.262052
 20
2.240451
 30
0.0
 10
591.705041
 20
2.562125
 30
0.0
 10
591.362010
 20
3.156579
 30
0.0
 10
591.362227
 20
3.799801
 30
0.0
  0
SPLINE
  5
1d8
100
AcDbEntity
  8
Makeblock
 62
7
100
AcDbSpline
 70
8
 71
3
 72
8
 73
4
 74
0
 40
0
 40
0
 40
0
 40
0
 40
1
 40
1
 40
1
 40
1
 10
591.362227
 20
3.799801
 30
0.0
 10
591.362010
 20
4.443023
 30
0.0
 10
591.705041
 20
5.037477
 30
0.0
 10
592.262052
 20
5.359151
 30
0.0
  0
SPLINE
  5
1d9
100
AcDbEntity
  8
Makeblock
 62
7
100
AcDbSpline
 70
8
 71
3
 72
8
 73
4
 74
0
 40
0
 40
0
 40
0
 40
0
 40
1
 40
1
 40
1
 40
1
 10
592.262052
 20
5.359151
 30
0.0
 10
592.819063
 20
5.680824
 30
0.0
 10
593.505390
 20
5.680824
 30
0.0
 10
594.062401
 20
5.359151
 30
0.0
  0
SPLINE
  5
1da
100
AcDbEntity
  8
Makeblock
 62
7
100
AcDbSpline
 70
8
 71
3
 72
8
 73
4
 74
0
 40
0
 40
0
 40
0
 40
0
 40
1
 40
1
 40
1
 40
1
 10
594.062401
 20
5.359151
 30
0.0
 10
594.619412
 20
5.037477
 30
0.0
 10
594.962443
 20
4.443023
 30
0.0
 10
594.962226
 20
3.799801
 30
0.0
  0
LINE
  5
1db
100
AcDbEntity
  8
Makeblock
 62
7
100
AcDbLine
 10
594.962226
 20
3.799801
 30
0.0
 11
594.962226
 21
3.799801
 31
0.0
  0
SPLINE
  5
1dc
100
AcDbEntity
  8
Makeblock
 62
7
100
AcDbSpline
 70
8
 71
3
 72
8
 73
4
 74
0
 40
0
 40
0
 40
0
 40
0
 40
1
 40
1
 40
1
 40
1
 10
577.138696
 20
7.458904
 30
0.0
 10
577.138696
 20
0.536417
 30
0.0
 10
577.138696
 20
0.536417
 30
0.0
 10
577.138696
 20
0.536417
 30
0.0
  0
SPLINE
  5
1dd
100
AcDbEntity
  8
Makeblock
 62
7
100
AcDbSpline
 70
8
 71
3
 72
8
 73
4
 74
0
 40
0
 40
0
 40
0
 40
0
 40
1
 40
1
 40
1
 40
1
 10
593.185758
 20
7.458904
 30
0.0
 10
593.185758
 20
0.536417
 30
0.0
 10
593.185758
 20
0.536417
 30
0.0
 10
593.185758
 20
0.536417
 30
0.0
  0
LINE
  5
1de
100
AcDbEntity
  8
Makeblock
 62
7
100
AcDbLine
 10
573.021110
 20
511.997647
 30
0.0
 11
597.021109
 21
511.997647
 31
0.0
  0
LINE
  5
1df
100
AcDbEntity
  8
Makeblock
 62
7
100
AcDbLine
 10
597.021109
 20
511.997647
 30
0.0
 11
597.021109
 21
503.997647
 31
0.0
  0
LINE
  5
1e0
100
AcDbEntity
  8
Makeblock
 62
7
100
AcDbLine
 10
597.021109
 20
503.997647
 30
0.0
 11
573.021110
 21
503.997647
 31
0.0
  0
LINE
  5
1e1
100
AcDbEntity
  8
Makeblock
 62
7
100
AcDbLine
 10
573.021110
 20
503.997647
 30
0.0
 11
573.021110
 21
511.997647
 31
0.0
  0
SPLINE
  5
1e2
100
AcDbEntity
  8
Makeblock
 62
7
100
AcDbSpline
 70
8
 71
3
 72
8
 73
4
 74
0
 40
0
 40
0
 40
0
 40
0
 40
1
 40
1
 40
1
 40
1
 10
578.962227
 20
507.799809
 30
0.0
 10
578.962444
 20
507.156587
 30
0.0
 10
578.619413
 20
506.562133
 30
0.0
 10
578.062402
 20
506.240459
 30
0.0
  0
SPLINE
  5
1e3
100
AcDbEntity
  8
Makeblock
 62
7
100
AcDbSpline
 70
8
 71
3
 72
8
 73
4
 74
0
 40
0
 40
0
 40
0
 40
0
 40
1
 40
1
 40
1
 40
1
 10
578.062402
 20
506.240459
 30
0.0
 10
577.505391
 20
505.918786
 30
0.0
 10
576.819064
 20
505.918786
 30
0.0
 10
576.262053
 20
506.240459
 30
0.0
  0
SPLINE
  5
1e4
100
AcDbEntity
  8
Makeblock
 62
7
100
AcDbSpline
 70
8
 71
3
 72
8
 73
4
 74
0
 40
0
 40
0
 40
0
 40
0
 40
1
 40
1
 40
1
 40
1
 10
576.262053
 20
506.240459
 30
0.0
 10
575.705042
 20
506.562133
 30
0.0
 10
575.362011
 20
507.156587
 30
0.0
 10
575.362227
 20
507.799809
 30
0.0
  0
SPLINE
  5
1e5
100
AcDbEntity
  8
Makeblock
 62
7
100
AcDbSpline
 70
8
 71
3
 72
8
 73
4
 74
0
 40
0
 40
0
 40
0
 40
0
 40
1
 40
1
 40
1
 40
1
 10
575.362227
 20
507.799809
 30
0.0
 10
575.362011
 20
508.443031
 30
0.0
 10
575.705042
 20
509.037485
 30
0.0
 10
576.262053
 20
509.359159
 30
0.0
  0
SPLINE
  5
1e6
100
AcDbEntity
  8
Makeblock
 62
7
100
AcDbSpline
 70
8
 71
3
 72
8
 73
4
 74
0
 40
0
 40
0
 40
0
 40
0
 40
1
 40
1
 40
1
 40
1
 10
576.262053
 20
509.359159
 30
0.0
 10
576.819064
 20
509.680832
 30
0.0
 10
577.505391
 20
509.680832
 30
0.0
 10
578.062402
 20
509.359159
 30
0.0
  0
SPLINE
  5
1e7
100
AcDbEntity
  8
Makeblock
 62
7
100
AcDbSpline
 70
8
 71
3
 72
8
 73
4
 74
0
 40
0
 40
0
 40
0
 40
0
 40
1
 40
1
 40
1
 40
1
 10
578.062402
 20
509.359159
 30
0.0
 10
578.619413
 20
509.037485
 30
0.0
 10
578.962444
 20
508.443031
 30
0.0
 10
578.962227
 20
507.799809
 30
0.0
  0
LINE
  5
1e8
100
AcDbEntity
  8
Makeblock
 62
7
100
AcDbLine
 10
578.962227
 20
507.799809
 30
0.0
 11
578.962227
 21
507.799809
 31
0.0
  0
SPLINE
  5
1e9
100
AcDbEntity
  8
Makeblock
 62
7
100
AcDbSpline
 70
8
 71
3
 72
8
 73
4
 74
0
 40
0
 40
0
 40
0
 40
0
 40
1
 40
1
 40
1
 40
1
 10
594.962226
 20
507.799809
 30
0.0
 10
594.962443
 20
507.156587
 30
0.0
 10
594.619412
 20
506.562133
 30
0.0
 10
594.062401
 20
506.240459
 30
0.0
  0
SPLINE
  5
1ea
100
AcDbEntity
  8
Makeblock
 62
7
100
AcDbSpline
 70
8
 71
3
 72
8
 73
4
 74
0
 40
0
 40
0
 40
0
 40
0
 40
1
 40
1
 40
1
 40
1
 10
594.062401
 20
506.240459
 30
0.0
 10
593.505390
 20
505.918786
 30
0.0
 10
592.819063
 20
505.918786
 30
0.0
 10
592.262052
 20
506.240459
 30
0.0
  0
SPLINE
  5
1eb
100
AcDbEntity
  8
Makeblock
 62
7
100
AcDbSpline
 70
8
 71
3
 72
8
 73
4
 74
0
 40
0
 40
0
 40
0
 40
0
 40
1
 40
1
 40
1
 40
1
 10
592.262052
 20
506.240459
 30
0.0
 10
591.705041
 20
506.562133
 30
0.0
 10
591.362010
 20
507.156587
 30
0.0
 10
591.362227
 20
507.799809
 30
0.0
  0
SPLINE
  5
1ec
100
AcDbEntity
  8
Makeblock
 62
7
100
AcDbSpline
 70
8
 71
3
 72
8
 73
4
 74
0
 40
0
 40
0
 40
0
 40
0
 40
1
 40
1
 40
1
 40
1
 10
591.362227
 20
507.799809
 30
0.0
 10
591.362010
 20
508.443031
 30
0.0
 10
591.705041
 20
509.037485
 30
0.0
 10
592.262052
 20
509.359159
 30
0.0
  0
SPLINE
  5
1ed
100
AcDbEntity
  8
Makeblock
 62
7
100
AcDbSpline
 70
8
 71
3
 72
8
 73
4
 74
0
 40
0
 40
0
 40
0
 40
0
 40
1
 40
1
 40
1
 40
1
 10
592.262052
 20
509.359159
 30
0.0
 10
592.819063
 20
509.680832
 30
0.0
 10
593.505390
 20
509.680832
 30
0.0
 10
594.062401
 20
509.359159
 30
0.0
  0
SPLINE
  5
1ee
100
AcDbEntity
  8
Makeblock
 62
7
100
AcDbSpline
 70
8
 71
3
 72
8
 73
4
 74
0
 40
0
 40
0
 40
0
 40
0
 40
1
 40
1
 40
1
 40
1
 10
594.062401
 20
509.359159
 30
0.0
 10
594.619412
 20
509.037485
 30
0.0
 10
594.962443
 20
508.443031
 30
0.0
 10
594.962226
 20
507.799809
 30
0.0
  0
LINE
  5
1ef
100
AcDbEntity
  8
Makeblock
 62
7
100
AcDbLine
 10
594.962226
 20
507.799809
 30
0.0
 11
594.962226
 21
507.799809
 31
0.0
  0
SPLINE
  5
1f0
100
AcDbEntity
  8
Makeblock
 62
7
100
AcDbSpline
 70
8
 71
3
 72
8
 73
4
 74
0
 40
0
 40
0
 40
0
 40
0
 40
1
 40
1
 40
1
 40
1
 10
577.138696
 20
511.458913
 30
0.0
 10
577.138696
 20
504.536425
 30
0.0
 10
577.138696
 20
504.536425
 30
0.0
 10
577.138696
 20
504.536425
 30
0.0
  0
SPLINE
  5
1f1
100
AcDbEntity
  8
Makeblock
 62
7
100
AcDbSpline
 70
8
 71
3
 72
8
 73
4
 74
0
 40
0
 40
0
 40
0
 40
0
 40
1
 40
1
 40
1
 40
1
 10
593.185758
 20
511.458913
 30
0.0
 10
593.185758
 20
504.536425
 30
0.0
 10
593.185758
 20
504.536425
 30
0.0
 10
593.185758
 20
504.536425
 30
0.0
  0
LINE
  5
1f2
100
AcDbEntity
  8
random
 62
7
100
AcDbLine
 10
-0.063006
 20
-0.001191
 30
0.0
 11
596.845734
 21
511.997616
 31
0.0
  0
LINE
  5
1f3
100
AcDbEntity
  8
random
 62
7
100
AcDbLine
 10
596.845734
 20
-0.002376
 30
0.0
 11
-0.154277
 21
511.997616
 31
0.0
  0
LINE
  5
1f4
100
AcDbEntity
  8
random
 62
7
100
AcDbLine
 10
269.845711
 20
436.997625
 30
0.0
 11
269.845711
 21
476.997624
 31
0.0
  0
LINE
  5
1f5
100
AcDbEntity
  8
random
 62
7
100
AcDbLine
 10
269.845711
 20
476.997624
 30
0.0
 11
329.845710
 21
476.997624
 31
0.0
  0
LINE
  5
1f6
100
AcDbEntity
  8
random
 62
7
100
AcDbLine
 10
329.845710
 20
476.997624
 30
0.0
 11
329.845710
 21
436.997625
 31
0.0
  0
LINE
  5
1f7
100
AcDbEntity
  8
random
 62
7
100
AcDbLine
 10
329.845710
 20
436.997625
 30
0.0
 11
269.845711
 21
436.997625
 31
0.0
  0
LINE
  5
1f8
100
AcDbEntity
  8
random
 62
7
100
AcDbLine
 10
557.021103
 20
285.997616
 30
0.0
 11
597.021102
 21
285.997616
 31
0.0
  0
LINE
  5
1f9
100
AcDbEntity
  8
random
 62
7
100
AcDbLine
 10
597.021102
 20
285.997616
 30
0.0
 11
597.021102
 21
225.997618
 31
0.0
  0
LINE
  5
1fa
100
AcDbEntity
  8
random
 62
7
100
AcDbLine
 10
597.021102
 20
225.997618
 30
0.0
 11
557.021103
 21
225.997618
 31
0.0
  0
LINE
  5
1fb
100
AcDbEntity
  8
random
 62
7
100
AcDbLine
 10
557.021103
 20
225.997618
 30
0.0
 11
557.021103
 21
285.997616
 31
0.0
  0
LINE
  5
1fc
100
AcDbEntity
  8
random
 62
7
100
AcDbLine
 10
269.845711
 20
34.997582
 30
0.0
 11
269.845711
 21
74.997581
 31
0.0
  0
LINE
  5
1fd
100
AcDbEntity
  8
random
 62
7
100
AcDbLine
 10
269.845711
 20
74.997581
 30
0.0
 11
329.845710
 21
74.997581
 31
0.0
  0
LINE
  5
1fe
100
AcDbEntity
  8
random
 62
7
100
AcDbLine
 10
329.845710
 20
74.997581
 30
0.0
 11
329.845710
 21
34.997582
 31
0.0
  0
LINE
  5
1ff
100
AcDbEntity
  8
random
 62
7
100
AcDbLine
 10
329.845710
 20
34.997582
 30
0.0
 11
269.845711
 21
34.997582
 31
0.0
  0
LINE
  5
200
100
AcDbEntity
  8
random
 62
7
100
AcDbLine
 10
0.021127
 20
285.997616
 30
0.0
 11
40.021126
 21
285.997616
 31
0.0
  0
LINE
  5
201
100
AcDbEntity
  8
random
 62
7
100
AcDbLine
 10
40.021126
 20
285.997616
 30
0.0
 11
40.021126
 21
225.997618
 31
0.0
  0
LINE
  5
202
100
AcDbEntity
  8
random
 62
7
100
AcDbLine
 10
40.021126
 20
225.997618
 30
0.0
 11
0.021127
 21
225.997618
 31
0.0
  0
LINE
  5
203
100
AcDbEntity
  8
random
 62
7
100
AcDbLine
 10
0.021127
 20
225.997618
 30
0.0
 11
0.021127
 21
285.997616
 31
0.0
  0
LINE
  5
204
100
AcDbEntity
  8
random
 62
7
100
AcDbLine
 10
261.793121
 20
292.550167
 30
0.0
 11
334.898348
 21
292.550167
 31
0.0
  0
LINE
  5
205
100
AcDbEntity
  8
random
 62
7
100
AcDbLine
 10
334.898348
 20
292.550167
 30
0.0
 11
334.898348
 21
219.444940
 31
0.0
  0
LINE
  5
206
100
AcDbEntity
  8
random
 62
7
100
AcDbLine
 10
334.898348
 20
219.444940
 30
0.0
 11
261.793121
 21
219.444940
 31
0.0
  0
LINE
  5
207
100
AcDbEntity
  8
random
 62
7
100
AcDbLine
 10
261.793121
 20
219.444940
 30
0.0
 11
261.793121
 21
292.550167
 31
0.0
  0
LINE
  5
208
100
AcDbEntity
  8
random
 62
7
100
AcDbLine
 10
74.845714
 20
34.997582
 30
0.0
 11
124.845716
 21
34.997582
 31
0.0
  0
LINE
  5
209
100
AcDbEntity
  8
random
 62
7
100
AcDbLine
 10
124.845716
 20
34.997582
 30
0.0
 11
124.845716
 21
-0.002419
 31
0.0
  0
LINE
  5
20a
100
AcDbEntity
  8
random
 62
7
100
AcDbLine
 10
124.845716
 20
-0.002419
 30
0.0
 11
74.845714
 21
-0.002419
 31
0.0
  0
LINE
  5
20b
100
AcDbEntity
  8
random
 62
7
100
AcDbLine
 10
74.845714
 20
-0.002419
 30
0.0
 11
74.845714
 21
34.997582
 31
0.0
  0
LINE
  5
20c
100
AcDbEntity
  8
random
 62
7
100
AcDbLine
 10
71.620312
 20
511.997616
 30
0.0
 11
121.620314
 21
511.997616
 31
0.0
  0
LINE
  5
20d
100
AcDbEntity
  8
random
 62
7
100
AcDbLine
 10
121.620314
 20
511.997616
 30
0.0
 11
121.620314
 21
476.997615
 31
0.0
  0
LINE
  5
20e
100
AcDbEntity
  8
random
 62
7
100
AcDbLine
 10
121.620314
 20
476.997615
 30
0.0
 11
71.620312
 21
476.997615
 31
0.0
  0
LINE
  5
20f
100
AcDbEntity
  8
random
 62
7
100
AcDbLine
 10
71.620312
 20
476.997615
 30
0.0
 11
71.620312
 21
511.997616
 31
0.0
  0
LINE
  5
210
100
AcDbEntity
  8
random
 62
7
100
AcDbLine
 10
0.021127
 20
511.997621
 30
0.0
 11
597.021090
 21
511.997621
 31
0.0
  0
LINE
  5
211
100
AcDbEntity
  8
random
 62
7
100
AcDbLine
 10
597.021090
 20
511.997621
 30
0.0
 11
597.021090
 21
-0.002371
 31
0.0
  0
LINE
  5
212
100
AcDbEntity
  8
random
 62
7
100
AcDbLine
 10
597.021090
 20
-0.002371
 30
0.0
 11
0.021127
 21
-0.002371
 31
0.0
  0
LINE
  5
213
100
AcDbEntity
  8
random
 62
7
100
AcDbLine
 10
0.021127
 20
-0.002371
 30
0.0
 11
0.021127
 21
511.997621
 31
0.0
  0
ENDSEC
  0
SECTION
  2
OBJECTS
  0
DICTIONARY
  5
C
330
0
100
AcDbDictionary
  3
ACAD_GROUP
350
D
  3
ACAD_MLINESTYLE
350
17
  0
DICTIONARY
  5
D
330
C
100
AcDbDictionary
  0
DICTIONARY
  5
1A
330
C
100
AcDbDictionary
  0
DICTIONARY
  5
17
330
C
100
AcDbDictionary
  3
STANDARD
350
18
  0
DICTIONARY
  5
19
330
C
100
AcDbDictionary
  0
ENDSEC
  0
EOF
